<svg width="41" height="33" viewBox="0 0 41 33" fill="none" xmlns="http://www.w3.org/2000/svg">
<path d="M40.4302 12.5519V20.4626C40.4302 21.2598 39.7863 21.9191 38.9738 21.9191H32.5501C29.8212 21.9191 27.6289 19.7114 27.6289 16.9978V16.0167C27.6289 13.3031 29.8212 11.0955 32.5501 11.0955H38.9738C39.7863 11.0955 40.4302 11.7547 40.4302 12.5519Z" fill="#252525"/>
<path d="M32.55 8.79585H38.5598V5.89832C38.5598 2.8628 36.0915 0.394531 33.0406 0.394531H6.08894C3.0381 0.394531 0.569824 2.8628 0.569824 5.89832V19.6608C2.25622 17.7445 4.71989 16.5272 7.46872 16.5272C12.5417 16.5272 16.6673 20.6528 16.6673 25.7257C16.6673 28.4715 15.4515 30.9336 13.5352 32.62H33.0406C36.0915 32.62 38.5598 30.1518 38.5598 27.1163V24.2187H32.55C28.5686 24.2187 25.3292 20.9793 25.3292 16.9979V16.0167C25.3292 12.0353 28.5686 8.79585 32.55 8.79585Z" fill="#252525"/>
<path d="M7.46872 18.8237C3.65133 18.8237 0.569824 21.9206 0.569824 25.7226C0.569824 29.54 3.65133 32.6215 7.46872 32.6215C11.2861 32.6215 14.3676 29.54 14.3676 25.7226C14.3676 21.9206 11.2861 18.8237 7.46872 18.8237ZM9.83121 27.1055H5.1093C4.34735 27.1055 3.72952 26.4876 3.72952 25.7257C3.72952 24.9637 4.34735 24.3459 5.1093 24.3459H9.83121C10.5932 24.3459 11.211 24.9637 11.211 25.7257C11.211 26.4876 10.5932 27.1055 9.83121 27.1055Z" fill="#252525"/>
</svg>
