<svg width="446" height="331" viewBox="0 0 446 331" fill="none" xmlns="http://www.w3.org/2000/svg">
<g clip-path="url(#clip0_31_869)">
<path d="M404.254 194.559L186.972 320.835C184.508 322.265 180.495 322.265 178.014 320.835L58.9122 252.075C57.6641 251.355 57.04 250.407 57.0423 249.462L57.0195 258.069C57.0195 259.014 57.639 259.962 58.8872 260.682L177.98 329.44C180.463 330.872 184.476 330.872 186.94 329.44L404.222 203.166C405.448 202.453 406.06 201.521 406.063 200.59L406.088 191.983C406.094 192.912 405.479 193.848 404.254 194.559Z" fill="#67825F"/>
<path d="M404.254 194.559L186.972 320.835C184.508 322.265 180.495 322.265 178.014 320.835L58.9122 252.075C56.4296 250.642 56.4068 248.319 58.8826 246.886L106.227 219.373L123.639 209.254L218.389 154.193L224.798 150.471L276.178 120.612C278.645 119.177 282.654 119.177 285.136 120.612L404.229 189.37C406.705 190.803 406.721 193.126 404.254 194.559Z" fill="#00C853"/>
<path d="M372.261 216.248C371.999 216.095 371.637 216.116 371.238 216.348L358.149 223.905C357.731 224.177 357.383 224.543 357.134 224.975C356.884 225.406 356.741 225.89 356.714 226.388V226.527C356.714 226.982 356.876 227.299 357.135 227.438L358.623 228.303C358.365 228.153 358.204 227.834 358.204 227.381V227.242C358.229 226.744 358.372 226.26 358.621 225.828C358.87 225.397 359.218 225.03 359.636 224.759L372.725 217.2C373.126 216.972 373.488 216.95 373.75 217.102L372.261 216.248Z" fill="white"/>
<path d="M372.725 217.211C373.52 216.756 374.167 217.123 374.169 218.036V218.173C374.143 218.67 374 219.154 373.751 219.586C373.502 220.017 373.154 220.383 372.737 220.655L359.645 228.214C358.853 228.67 358.206 228.303 358.203 227.392V227.253C358.229 226.756 358.372 226.271 358.621 225.84C358.87 225.408 359.218 225.042 359.636 224.771L372.725 217.211Z" fill="#00C853"/>
<path d="M387.209 195.916L183.31 314.41C183.044 314.486 182.768 314.522 182.492 314.517C182.207 314.523 181.923 314.484 181.649 314.403L75.9395 253.364C75.2514 252.966 74.6798 252.395 74.282 251.707C73.8842 251.02 73.6743 250.239 73.6731 249.445C73.6719 248.65 73.8797 247.87 74.2755 247.181C74.6713 246.492 75.2412 245.919 75.9281 245.52L113.763 223.532L131.016 213.51L225.764 158.447L232.298 154.648L279.829 127.026C280.095 126.95 280.371 126.914 280.647 126.919C280.931 126.913 281.213 126.951 281.485 127.033L308.784 142.805C307.825 142.971 306.901 143.299 306.051 143.775C303.384 145.324 303.398 147.836 306.083 149.387L340.104 169.027C342.789 170.578 347.125 170.578 349.792 169.027C350.481 168.656 351.057 168.105 351.457 167.432L387.19 188.074C387.879 188.471 388.451 189.041 388.85 189.728C389.248 190.415 389.459 191.195 389.461 191.99C389.462 192.784 389.255 193.565 388.86 194.254C388.465 194.943 387.895 195.516 387.209 195.916Z" fill="white"/>
<path d="M307.019 196.328L192.229 266.934L106.227 219.373L123.639 209.254L218.389 154.193L224.794 150.471L307.019 196.328Z" fill="#264BD3"/>
<path d="M310.208 198.15L192.229 266.934L113.763 223.541L131.016 213.515L225.766 158.452L232.298 154.657L310.208 198.15Z" fill="#D1D1D1"/>
<path d="M311.684 150.191C311.684 150.191 311.666 150.191 311.654 150.205L273.967 172.106C272.764 170.351 271.185 168.887 269.343 167.822L233.148 146.927C227.682 143.773 218.861 143.766 213.428 146.927C210.887 148.403 209.538 150.321 209.399 152.255C209.381 152.459 209.381 152.665 209.399 152.87L209.381 156.038C209.381 158.119 210.748 160.199 213.497 161.786L246.722 180.98C246.989 181.132 247.248 181.296 247.501 181.458C249.013 182.468 250.318 183.757 251.346 185.257L207.129 210.944C206.568 211.267 205.932 211.438 205.285 211.438C204.638 211.438 204.002 211.267 203.441 210.944L99.7403 151.084C96.7157 149.335 93.9848 149.132 91.9714 150.212L129.697 128.285L147.588 117.89L175.602 101.596L198.269 88.4229C200.298 87.2476 203.106 87.4185 206.209 89.2041L239.222 108.295L311.684 150.191Z" fill="#00C853"/>
<path d="M256.819 191.584V206.99C256.819 207.217 256.819 207.459 256.791 207.691C256.681 209.513 256.119 211.278 255.156 212.829C254.194 214.379 252.861 215.666 251.277 216.574C250.975 216.743 250.635 216.833 250.289 216.833H241.074L253.828 209.415V204.894L206.705 232.282C206.271 232.534 205.778 232.667 205.276 232.667C204.774 232.667 204.281 232.534 203.847 232.282L101.621 173.35C101 172.989 100.409 172.579 99.8541 172.122C95.6793 168.74 92.4337 162.515 92.4496 157.477C92.4496 155.974 92.7571 153.448 94.7409 153.448C95.3331 153.448 96.3352 153.626 97.7906 154.457L102.785 157.343L112.579 162.998L203.35 215.412L208.589 213.59L252.462 187.216C251.353 184.888 249.637 182.903 247.494 181.469C247.242 181.308 246.982 181.144 246.715 180.991L213.49 161.786C210.736 160.192 209.365 158.119 209.372 156.038L209.39 152.87C209.5 154.856 210.873 156.824 213.49 158.336L249.697 179.246C251.537 180.31 253.115 181.773 254.313 183.528C255.055 184.601 255.644 185.771 256.063 187.006C256.564 188.48 256.819 190.027 256.819 191.584Z" fill="#00C853"/>
<path d="M311.697 171.275L309.468 169.835L297.622 161.729L266.198 179.797L268.817 194.463L276.47 189.716V191.746L311.697 171.275Z" fill="#00C853"/>
<path d="M275.716 175.586C275.296 174.352 274.708 173.181 273.967 172.108C272.764 170.353 271.185 168.888 269.343 167.822L233.148 146.927C227.682 143.773 218.858 143.766 213.428 146.927C210.887 148.403 209.541 150.316 209.397 152.252V152.872C209.509 154.853 210.88 156.826 213.497 158.338L249.697 179.246C251.863 180.497 253.662 182.297 254.912 184.463C256.162 186.63 256.82 189.087 256.819 191.589V206.994C256.819 207.222 256.819 207.463 256.791 207.698C256.681 209.52 256.119 211.285 255.156 212.836C254.194 214.386 252.861 215.673 251.277 216.581L270.917 205.603C272.567 204.658 273.945 203.304 274.916 201.67C275.888 200.036 276.421 198.179 276.463 196.278C276.463 196.194 276.463 196.11 276.463 196.025V180.157C276.465 178.603 276.213 177.059 275.716 175.586ZM229.219 155.953C226.03 157.807 220.831 157.807 217.617 155.953C214.403 154.1 214.378 151.082 217.571 149.23C220.765 147.378 225.967 147.376 229.187 149.23C232.408 151.084 232.419 154.093 229.219 155.953Z" fill="#67825F"/>
<path d="M311.736 150.218C311.734 150.214 311.73 150.211 311.725 150.208C311.721 150.206 311.716 150.205 311.711 150.205C311.704 150.198 311.695 150.193 311.686 150.191C311.672 150.191 311.665 150.191 311.652 150.205L273.967 172.108C274.708 173.181 275.296 174.352 275.716 175.586L304.616 158.807L310.31 155.505C310.753 155.246 311.121 154.875 311.377 154.43C311.632 153.985 311.767 153.481 311.768 152.968V150.271C311.769 150.26 311.767 150.249 311.761 150.239C311.755 150.23 311.746 150.222 311.736 150.218Z" fill="#67825F"/>
<path d="M203.856 232.287L101.622 173.35C96.6336 170.475 92.4315 163.205 92.452 157.475C92.452 155.974 92.7571 153.45 94.7409 153.45C95.3331 153.45 96.3352 153.626 97.7906 154.457L104.794 158.502L203.439 215.419C203.999 215.742 204.634 215.912 205.28 215.912C205.927 215.912 206.562 215.742 207.122 215.419L253.086 188.73C252.663 187.498 252.075 186.33 251.337 185.257L207.129 210.944C206.568 211.267 205.932 211.438 205.285 211.438C204.638 211.438 204.002 211.267 203.441 210.944L99.7402 151.082C96.7179 149.332 93.987 149.132 91.9691 150.212L91.8119 150.303C89.8099 151.467 88.5595 153.947 88.555 157.468C88.5345 164.551 93.5088 173.183 99.6742 176.732L203.79 236.84C204.224 237.091 204.718 237.224 205.22 237.224C205.722 237.224 206.216 237.091 206.65 236.84L241.074 216.827L253.828 209.406V204.897L206.719 232.28C206.285 232.534 205.791 232.668 205.288 232.669C204.785 232.671 204.291 232.539 203.856 232.287Z" fill="#67825F"/>
<path d="M276.47 196.014C276.47 196.098 276.47 196.183 276.47 196.267L309.443 177.101C310.128 176.703 310.697 176.133 311.093 175.446C311.489 174.759 311.697 173.981 311.697 173.188V171.275L276.47 191.746V196.014Z" fill="#67825F"/>
<path d="M229.219 155.953C226.03 157.807 220.831 157.807 217.617 155.953C214.403 154.099 214.378 151.082 217.571 149.23C220.765 147.378 225.967 147.376 229.187 149.23C232.408 151.084 232.419 154.093 229.219 155.953Z" fill="#BBE1E3"/>
<path d="M115.36 164.608L100.116 172.384C95.9412 168.997 92.6979 162.777 92.7116 157.739C92.7116 156.236 93.0191 153.71 95.0028 153.71C95.595 153.71 96.6086 153.888 98.0525 154.719L103.047 157.609L115.36 164.608Z" fill="#67825F"/>
<path d="M246.861 215.301L196.556 244.534C194.078 245.975 190.042 245.975 187.544 244.534L102.56 195.465C101.303 194.741 100.674 193.787 100.676 192.837V195.433C100.676 196.385 101.3 197.337 102.558 198.064L187.546 247.13C190.051 248.572 194.078 248.572 196.558 247.13L246.861 217.897C248.093 217.18 248.711 216.244 248.713 215.305V212.709C248.713 213.649 248.093 214.586 246.861 215.301Z" fill="#47696E"/>
<path d="M246.861 215.301L196.556 244.534C194.078 245.975 190.042 245.975 187.544 244.534L102.56 195.465C100.055 194.023 100.055 191.687 102.528 190.245L112.777 184.294L116.681 182.016L131.078 173.648L203.446 215.419C204.006 215.742 204.641 215.912 205.287 215.912C205.934 215.912 206.569 215.742 207.129 215.419L231.528 201.252L245.877 209.534L246.836 210.087C247.957 210.734 248.579 211.561 248.697 212.408C248.838 213.44 248.228 214.508 246.861 215.301Z" fill="#5B7D82"/>
<path d="M189.04 217.776L170.705 207.186C170.576 207.11 170.432 207.06 170.284 207.04C170.135 207.019 169.984 207.029 169.838 207.067C169.693 207.105 169.557 207.172 169.438 207.263C169.318 207.355 169.218 207.468 169.143 207.599C169.068 207.729 169.019 207.872 169 208.021C168.981 208.17 168.991 208.321 169.03 208.466C169.07 208.611 169.137 208.747 169.229 208.866C169.321 208.984 169.436 209.084 169.567 209.158L187.901 219.749C188.163 219.897 188.472 219.937 188.762 219.858C189.053 219.779 189.3 219.589 189.45 219.328C189.601 219.068 189.642 218.758 189.565 218.468C189.488 218.177 189.299 217.928 189.04 217.776Z" fill="#FFCA28"/>
<path d="M164.788 203.999L146.854 193.556C146.725 193.471 146.579 193.413 146.426 193.385C146.274 193.358 146.117 193.363 145.966 193.398C145.815 193.434 145.672 193.5 145.548 193.592C145.423 193.685 145.319 193.802 145.241 193.936C145.163 194.071 145.114 194.219 145.096 194.374C145.078 194.528 145.091 194.684 145.136 194.833C145.18 194.981 145.254 195.119 145.354 195.238C145.454 195.357 145.577 195.455 145.716 195.524L163.647 205.967C163.907 206.097 164.206 206.124 164.484 206.04C164.762 205.957 164.998 205.771 165.144 205.52C165.289 205.268 165.333 204.971 165.267 204.688C165.2 204.406 165.028 204.159 164.786 203.999H164.788Z" fill="#FFCA28"/>
<path d="M141.725 190.612L129.139 183.382C129.01 183.308 128.866 183.259 128.718 183.24C128.569 183.22 128.418 183.23 128.274 183.269C128.129 183.308 127.993 183.375 127.875 183.467C127.756 183.558 127.656 183.672 127.581 183.802C127.507 183.931 127.458 184.075 127.439 184.223C127.419 184.372 127.429 184.523 127.468 184.667C127.507 184.812 127.574 184.948 127.666 185.066C127.757 185.185 127.871 185.285 128.001 185.359L140.589 192.586C140.851 192.737 141.162 192.778 141.454 192.7C141.746 192.621 141.995 192.43 142.146 192.168C142.297 191.906 142.337 191.595 142.259 191.303C142.181 191.011 141.989 190.763 141.728 190.612H141.725Z" fill="#FFCA28"/>
<path d="M275.978 135.542C282.285 139.186 282.319 145.087 276.053 148.729C269.787 152.371 259.593 152.373 253.277 148.729C246.961 145.085 246.936 139.184 253.202 135.542C259.468 131.9 269.667 131.9 275.978 135.542Z" fill="#67825F"/>
<path d="M201.546 279.26C209.746 283.157 210.374 290.491 202.952 295.638C195.529 300.785 182.863 301.803 174.664 297.916C166.465 294.028 165.836 286.685 173.259 281.535C180.681 276.386 193.347 275.361 201.546 279.26Z" fill="#D1D1D1"/>
<path d="M359.383 271.516C367.583 275.413 368.211 282.747 360.789 287.894C353.366 293.042 340.7 294.06 332.501 290.172C324.302 286.284 323.673 278.941 331.096 273.791C338.518 268.642 351.184 267.617 359.383 271.516Z" fill="#D1D1D1"/>
<path d="M156.37 133.326C150.253 136.883 140.3 136.883 134.15 133.326C131.69 131.904 130.208 130.137 129.707 128.285L147.588 117.89C150.777 118.175 153.844 119.029 156.307 120.45C162.456 124.006 162.488 129.77 156.37 133.326Z" fill="#67825F"/>
<path d="M239.231 108.295L213.308 123.359L175.602 101.596L198.269 88.4229C200.298 87.2476 203.106 87.4185 206.209 89.2041L239.231 108.295Z" fill="#67825F"/>
<path d="M288.985 105.872V109.764C288.985 113.351 286.619 116.934 281.909 119.669C272.429 125.179 257.01 125.179 247.467 119.669C242.666 116.895 240.268 113.258 240.279 109.623V105.73C240.279 109.374 242.666 113.003 247.467 115.777C257.01 121.284 272.429 121.284 281.909 115.777C286.619 113.041 288.976 109.459 288.985 105.872Z" fill="#FEB74D"/>
<path d="M281.797 95.8273C291.338 101.337 291.388 110.27 281.909 115.777C272.429 121.284 257.01 121.286 247.467 115.777C237.924 110.267 237.876 101.335 247.355 95.8251C256.835 90.3156 272.256 90.3179 281.797 95.8273Z" fill="#FFCA28"/>
<path d="M264.688 116.542C260.103 116.542 255.516 115.533 252.015 113.513C248.515 111.493 246.549 108.73 246.549 105.769C246.549 102.808 248.46 100.109 251.943 98.0844C258.901 94.0417 270.257 94.0417 277.258 98.0844C280.784 100.121 282.724 102.867 282.724 105.817C282.724 108.766 280.813 111.477 277.331 113.501C273.848 115.526 269.273 116.542 264.688 116.542ZM264.574 96.3512C260.228 96.3512 255.89 97.31 252.592 99.2255C249.531 101.004 247.847 103.325 247.85 105.776C247.852 108.227 249.565 110.586 252.669 112.381C259.308 116.214 270.077 116.214 276.673 112.381C279.734 110.602 281.417 108.281 281.415 105.83C281.412 103.38 279.7 101.023 276.595 99.2255C273.274 97.31 268.922 96.3421 264.574 96.3421V96.3512Z" fill="#F8FBFF"/>
<path d="M163.032 121.496L161.155 124.912C159.431 128.046 155.637 130.05 150.193 130.198C139.231 130.481 125.705 123.081 119.977 113.668C117.096 108.93 116.738 104.587 118.492 101.405L120.371 97.9888C118.617 101.177 118.975 105.505 121.856 110.251C127.582 119.665 141.11 127.064 152.07 126.782C157.516 126.648 161.304 124.637 163.032 121.496Z" fill="#FEB74D"/>
<path d="M161.547 109.233C167.275 118.647 163.03 126.507 152.07 126.789C141.11 127.071 127.582 119.671 121.851 110.258C116.121 100.845 120.368 92.9849 131.328 92.7025C142.288 92.4201 155.821 99.82 161.547 109.233Z" fill="#FFCA28"/>
<path d="M136.594 119.196C132.574 116.995 129.035 113.905 126.932 110.452C124.83 106.999 124.427 103.63 125.841 101.041C127.256 98.4512 130.235 96.9913 134.268 96.8888C142.311 96.6815 152.275 102.127 156.477 109.04C158.593 112.518 158.983 115.859 157.568 118.448C156.154 121.038 153.175 122.498 149.141 122.603C145.108 122.708 140.616 121.396 136.594 119.196ZM146.187 101.43C142.374 99.344 138.106 98.1005 134.294 98.1984C130.756 98.2895 128.162 99.524 126.992 101.669C125.821 103.815 126.178 106.71 128.051 109.78C132.036 116.328 141.488 121.496 149.109 121.3C152.649 121.209 155.241 119.977 156.411 117.829C157.582 115.681 157.215 112.789 155.352 109.725C153.359 106.443 150 103.514 146.187 101.428V101.43Z" fill="#F8FBFF"/>
<path d="M205.853 282.84L205.842 286.733C205.842 290.32 203.475 293.902 198.765 296.638C189.286 302.147 173.867 302.147 164.324 296.638C159.522 293.864 157.124 290.226 157.136 286.591L157.147 282.699C157.136 286.343 159.534 289.971 164.335 292.743C173.878 298.253 189.297 298.253 198.777 292.743C203.487 290.01 205.844 286.427 205.853 282.84Z" fill="#FEB74D"/>
<path d="M198.665 272.796C208.206 278.306 208.256 287.238 198.777 292.745C189.297 298.253 173.878 298.255 164.335 292.745C154.792 287.236 154.744 278.306 164.223 272.796C173.703 267.287 189.124 267.287 198.665 272.796Z" fill="#FFCA28"/>
<path d="M181.556 293.511C176.971 293.511 172.384 292.502 168.883 290.482C165.383 288.461 163.417 285.699 163.417 282.738C163.417 279.777 165.328 277.078 168.81 275.053C175.768 271.01 187.125 271.01 194.126 275.053C197.652 277.089 199.592 279.836 199.592 282.797C199.592 285.758 197.681 288.457 194.199 290.482C190.716 292.506 186.141 293.511 181.556 293.511ZM181.442 273.32C177.096 273.32 172.758 274.279 169.46 276.194C166.398 277.973 164.715 280.294 164.718 282.745C164.72 285.195 166.433 287.555 169.537 289.35C176.176 293.183 186.945 293.183 193.541 289.35C196.602 287.571 198.285 285.25 198.282 282.799C198.28 280.349 196.567 277.991 193.463 276.194C190.142 274.279 185.79 273.311 181.442 273.311V273.32Z" fill="#F8FBFF"/>
<path d="M363.69 275.096V278.989C363.69 282.576 361.324 286.159 356.614 288.894C347.134 294.404 331.715 294.404 322.172 288.894C317.371 286.12 314.973 282.483 314.984 278.848V274.955C314.984 278.599 317.371 282.228 322.172 284.999C331.715 290.509 347.134 290.509 356.614 284.999C361.324 282.266 363.681 278.684 363.69 275.096Z" fill="#FEB74D"/>
<path d="M356.502 265.052C366.043 270.562 366.093 279.494 356.614 285.002C347.134 290.509 331.715 290.511 322.172 285.002C312.629 279.492 312.581 270.562 322.06 265.052C331.54 259.543 346.961 259.543 356.502 265.052Z" fill="#FFCA28"/>
<path d="M339.393 285.767C334.808 285.767 330.221 284.758 326.72 282.738C323.22 280.718 321.254 277.955 321.254 274.994C321.254 272.033 323.165 269.334 326.647 267.309C333.606 263.267 344.962 263.267 351.963 267.309C355.489 269.346 357.429 272.092 357.429 275.053C357.429 278.014 355.518 280.713 352.036 282.738C348.553 284.763 343.978 285.767 339.393 285.767ZM339.279 265.576C334.933 265.576 330.595 266.535 327.297 268.45C324.236 270.229 322.552 272.55 322.555 275.001C322.557 277.451 324.27 279.811 327.374 281.606C334.013 285.439 344.782 285.439 351.378 281.606C354.439 279.827 356.122 277.506 356.119 275.055C356.117 272.605 354.404 270.247 351.3 268.45C347.979 266.535 343.627 265.567 339.279 265.567V265.576Z" fill="#F8FBFF"/>
<path d="M269.844 60.5998L214.845 92.5613L109.882 31.9637L164.884 0L269.844 60.5998Z" fill="#00C853"/>
<path d="M252.282 64.2053C249.048 62.3376 249.032 59.3084 252.245 57.4408C252.414 57.3429 252.592 57.2518 252.769 57.1652L169.537 9.11035C169.375 9.22423 169.204 9.33811 169.022 9.4406C165.945 11.2285 161.028 11.3014 157.773 9.66836L127.149 27.4632C130.126 29.3399 130.059 32.2461 126.921 34.0682C126.693 34.2003 126.465 34.3187 126.213 34.4326L210.939 83.3552L211.089 83.2641C214.214 81.4421 219.239 81.4033 222.489 83.1184L253.828 64.8976C253.293 64.7146 252.775 64.4828 252.282 64.2053ZM199.362 50.312C192.757 54.1543 182.002 54.1543 175.349 50.312C168.697 46.4697 168.662 40.245 175.272 36.405C181.882 32.565 192.629 32.565 199.282 36.405C205.935 40.245 205.969 46.4788 199.362 50.3188V50.312Z" fill="#73CA74"/>
<path d="M187.384 55.4776C182.125 55.4776 176.862 54.3183 172.844 51.9997C168.826 49.6811 166.633 46.5836 166.628 43.2583C166.624 39.933 168.799 36.8811 172.751 34.5761C180.722 29.9367 193.759 29.9367 201.792 34.5761C205.794 36.8879 208.001 39.9923 208.005 43.3175C208.01 46.6428 205.837 49.6948 201.886 52.002C197.895 54.3183 192.643 55.4776 187.384 55.4776ZM187.254 32.1277C182.184 32.1277 177.121 33.246 173.277 35.4803C169.662 37.5826 167.672 40.343 167.676 43.2583C167.681 46.1736 169.701 48.9751 173.37 51.0932C181.114 55.5619 193.67 55.5641 201.362 51.0932C204.976 48.9933 206.965 46.2306 206.96 43.3175C206.955 40.4045 204.935 37.5985 201.266 35.4803C197.396 33.2529 192.322 32.1277 187.254 32.1277Z" fill="white"/>
<path d="M167.631 13.4378C170.021 13.4378 171.958 11.5003 171.958 9.11038C171.958 6.72041 170.021 4.78296 167.631 4.78296C165.241 4.78296 163.303 6.72041 163.303 9.11038C163.303 11.5003 165.241 13.4378 167.631 13.4378Z" fill="#67825F"/>
<path d="M424.771 166.82C413.749 160.456 399.489 156.343 384.23 155.072C384.243 154.932 384.25 154.791 384.25 154.648C384.249 153.539 383.823 152.472 383.058 151.668C382.293 150.864 381.249 150.385 380.14 150.329C379.032 150.273 377.945 150.645 377.103 151.368C376.261 152.091 375.729 153.109 375.617 154.213C375.505 155.317 375.821 156.422 376.501 157.3C377.18 158.177 378.17 158.76 379.267 158.928C380.364 159.096 381.483 158.837 382.394 158.203C383.305 157.569 383.938 156.61 384.161 155.523C399.385 156.789 413.579 160.88 424.552 167.214C438.088 175.028 445.549 185.405 445.565 196.431C445.581 207.379 438.236 217.683 424.882 225.443C413.95 231.795 400.088 235.833 384.797 237.12C384.767 237.122 384.738 237.13 384.711 237.144C384.684 237.158 384.66 237.176 384.641 237.199C384.621 237.222 384.607 237.249 384.597 237.277C384.588 237.306 384.585 237.336 384.587 237.366C384.592 237.423 384.618 237.476 384.66 237.515C384.702 237.554 384.758 237.576 384.815 237.575H384.833C400.202 236.279 414.134 232.221 425.121 225.837C438.618 217.99 446.046 207.548 446.03 196.431C445.984 185.234 438.436 174.718 424.771 166.82Z" fill="#67825F"/>
<path d="M21.2408 288.266C32.2621 294.629 46.5221 298.742 61.7819 300.013C61.7683 300.152 61.7614 300.293 61.7614 300.437C61.762 301.547 62.1888 302.614 62.9537 303.418C63.7185 304.221 64.7629 304.701 65.8711 304.757C66.9793 304.812 68.0666 304.44 68.9084 303.718C69.7501 302.995 70.282 301.976 70.3941 300.872C70.5063 299.768 70.19 298.663 69.5108 297.786C68.8316 296.908 67.8413 296.325 66.7445 296.157C65.6477 295.989 64.5282 296.249 63.6174 296.882C62.7065 297.516 62.0739 298.476 61.8503 299.562C46.6269 298.296 32.4306 294.206 21.4595 287.869C7.93287 280.057 0.471487 269.68 0.455544 258.655C0.439601 247.706 7.78483 237.402 21.1383 229.643C32.0708 223.29 45.9322 219.252 61.2239 217.965C61.2843 217.963 61.3413 217.937 61.3823 217.892C61.4233 217.848 61.445 217.789 61.4426 217.729C61.4402 217.668 61.4139 217.611 61.3694 217.57C61.325 217.529 61.2661 217.508 61.2057 217.51H61.1852C45.8274 218.806 31.8863 222.865 20.9083 229.249C7.40903 237.097 -0.0159175 247.538 2.5622e-05 258.655C0.0159688 269.851 7.55935 280.371 21.2408 288.266Z" fill="#67825F"/>
<path d="M133.922 101.125C136.312 101.125 138.25 99.1876 138.25 96.7976C138.25 94.4077 136.312 92.4702 133.922 92.4702C131.532 92.4702 129.595 94.4077 129.595 96.7976C129.595 99.1876 131.532 101.125 133.922 101.125Z" fill="#67825F"/>
</g>
<defs>
<clipPath id="clip0_31_869">
<rect width="446" height="330.515" fill="white"/>
</clipPath>
</defs>
</svg>
