<svg width="617" height="155" viewBox="0 0 617 155" fill="none" xmlns="http://www.w3.org/2000/svg">
<path d="M11.72 19V7.2H7.08V5H18.96V7.2H14.32V19H11.72ZM20.4173 19V8.32H22.7973V11.26L22.5173 10.4C22.8373 9.68 23.3373 9.13333 24.0173 8.76C24.7107 8.38667 25.5707 8.2 26.5973 8.2V10.58C26.4907 10.5533 26.3907 10.54 26.2973 10.54C26.204 10.5267 26.1107 10.52 26.0173 10.52C25.0707 10.52 24.3173 10.8 23.7573 11.36C23.1973 11.9067 22.9173 12.7267 22.9173 13.82V19H20.4173ZM34.5364 19V16.84L34.3964 16.38V12.6C34.3964 11.8667 34.1764 11.3 33.7364 10.9C33.2964 10.4867 32.6297 10.28 31.7364 10.28C31.1364 10.28 30.5431 10.3733 29.9564 10.56C29.3831 10.7467 28.8964 11.0067 28.4964 11.34L27.5164 9.52C28.0897 9.08 28.7697 8.75333 29.5564 8.54C30.3564 8.31333 31.1831 8.2 32.0364 8.2C33.5831 8.2 34.7764 8.57333 35.6164 9.32C36.4697 10.0533 36.8964 11.1933 36.8964 12.74V19H34.5364ZM31.1764 19.14C30.3764 19.14 29.6764 19.0067 29.0764 18.74C28.4764 18.46 28.0097 18.08 27.6764 17.6C27.3564 17.1067 27.1964 16.5533 27.1964 15.94C27.1964 15.34 27.3364 14.8 27.6164 14.32C27.9097 13.84 28.3831 13.46 29.0364 13.18C29.6897 12.9 30.5564 12.76 31.6364 12.76H34.7364V14.42H31.8164C30.9631 14.42 30.3897 14.56 30.0964 14.84C29.8031 15.1067 29.6564 15.44 29.6564 15.84C29.6564 16.2933 29.8364 16.6533 30.1964 16.92C30.5564 17.1867 31.0564 17.32 31.6964 17.32C32.3097 17.32 32.8564 17.18 33.3364 16.9C33.8297 16.62 34.1831 16.2067 34.3964 15.66L34.8164 17.16C34.5764 17.7867 34.1431 18.2733 33.5164 18.62C32.9031 18.9667 32.1231 19.14 31.1764 19.14ZM44.6444 19.14C43.6177 19.14 42.691 18.9133 41.8644 18.46C41.051 17.9933 40.411 17.3533 39.9444 16.54C39.4777 15.7267 39.2444 14.7667 39.2444 13.66C39.2444 12.5533 39.4777 11.5933 39.9444 10.78C40.411 9.96667 41.051 9.33333 41.8644 8.88C42.691 8.42667 43.6177 8.2 44.6444 8.2C45.5377 8.2 46.3377 8.4 47.0444 8.8C47.751 9.18667 48.311 9.78 48.7244 10.58C49.1377 11.38 49.3444 12.4067 49.3444 13.66C49.3444 14.9 49.1444 15.9267 48.7444 16.74C48.3444 17.54 47.791 18.14 47.0844 18.54C46.3777 18.94 45.5644 19.14 44.6444 19.14ZM44.9444 17C45.5444 17 46.0777 16.8667 46.5444 16.6C47.0244 16.3333 47.4044 15.9467 47.6844 15.44C47.9777 14.9333 48.1244 14.34 48.1244 13.66C48.1244 12.9667 47.9777 12.3733 47.6844 11.88C47.4044 11.3733 47.0244 10.9867 46.5444 10.72C46.0777 10.4533 45.5444 10.32 44.9444 10.32C44.3444 10.32 43.8044 10.4533 43.3244 10.72C42.8577 10.9867 42.4777 11.3733 42.1844 11.88C41.9044 12.3733 41.7644 12.9667 41.7644 13.66C41.7644 14.34 41.9044 14.9333 42.1844 15.44C42.4777 15.9467 42.8577 16.3333 43.3244 16.6C43.8044 16.8667 44.3444 17 44.9444 17ZM48.1844 19V16.48L48.2844 13.64L48.0844 10.8V4.16H50.5644V19H48.1844ZM53.8548 19V8.32H56.3548V19H53.8548ZM55.1148 6.56C54.6482 6.56 54.2615 6.41333 53.9548 6.12C53.6615 5.82667 53.5148 5.47333 53.5148 5.06C53.5148 4.63333 53.6615 4.28 53.9548 4C54.2615 3.70667 54.6482 3.56 55.1148 3.56C55.5815 3.56 55.9615 3.7 56.2548 3.98C56.5615 4.24667 56.7148 4.58667 56.7148 5C56.7148 5.44 56.5682 5.81333 56.2748 6.12C55.9815 6.41333 55.5948 6.56 55.1148 6.56ZM63.6561 19.14C62.4828 19.14 61.5761 18.84 60.9361 18.24C60.2961 17.6267 59.9761 16.7267 59.9761 15.54V5.96H62.4761V15.48C62.4761 15.9867 62.6028 16.38 62.8561 16.66C63.1228 16.94 63.4894 17.08 63.9561 17.08C64.5161 17.08 64.9828 16.9333 65.3561 16.64L66.0561 18.42C65.7628 18.66 65.4028 18.84 64.9761 18.96C64.5494 19.08 64.1094 19.14 63.6561 19.14ZM58.2161 10.4V8.4H65.3361V10.4H58.2161ZM68.1127 19V8.32H70.6127V19H68.1127ZM69.3727 6.56C68.906 6.56 68.5193 6.41333 68.2127 6.12C67.9193 5.82667 67.7727 5.47333 67.7727 5.06C67.7727 4.63333 67.9193 4.28 68.2127 4C68.5193 3.70667 68.906 3.56 69.3727 3.56C69.8393 3.56 70.2193 3.7 70.5127 3.98C70.8193 4.24667 70.9727 4.58667 70.9727 5C70.9727 5.44 70.826 5.81333 70.5327 6.12C70.2393 6.41333 69.8527 6.56 69.3727 6.56ZM78.6939 19.14C77.6006 19.14 76.6272 18.9067 75.7739 18.44C74.9206 17.96 74.2472 17.3067 73.7539 16.48C73.2606 15.6533 73.0139 14.7133 73.0139 13.66C73.0139 12.5933 73.2606 11.6533 73.7539 10.84C74.2472 10.0133 74.9206 9.36667 75.7739 8.9C76.6272 8.43333 77.6006 8.2 78.6939 8.2C79.8006 8.2 80.7806 8.43333 81.6339 8.9C82.5006 9.36667 83.1739 10.0067 83.6539 10.82C84.1472 11.6333 84.3939 12.58 84.3939 13.66C84.3939 14.7133 84.1472 15.6533 83.6539 16.48C83.1739 17.3067 82.5006 17.96 81.6339 18.44C80.7806 18.9067 79.8006 19.14 78.6939 19.14ZM78.6939 17C79.3072 17 79.8539 16.8667 80.3339 16.6C80.8139 16.3333 81.1872 15.9467 81.4539 15.44C81.7339 14.9333 81.8739 14.34 81.8739 13.66C81.8739 12.9667 81.7339 12.3733 81.4539 11.88C81.1872 11.3733 80.8139 10.9867 80.3339 10.72C79.8539 10.4533 79.3139 10.32 78.7139 10.32C78.1006 10.32 77.5539 10.4533 77.0739 10.72C76.6072 10.9867 76.2339 11.3733 75.9539 11.88C75.6739 12.3733 75.5339 12.9667 75.5339 13.66C75.5339 14.34 75.6739 14.9333 75.9539 15.44C76.2339 15.9467 76.6072 16.3333 77.0739 16.6C77.5539 16.8667 78.0939 17 78.6939 17ZM92.8445 8.2C93.6979 8.2 94.4579 8.36667 95.1245 8.7C95.8045 9.03333 96.3379 9.54667 96.7245 10.24C97.1112 10.92 97.3045 11.8 97.3045 12.88V19H94.8045V13.2C94.8045 12.2533 94.5779 11.5467 94.1245 11.08C93.6845 10.6133 93.0645 10.38 92.2645 10.38C91.6779 10.38 91.1579 10.5 90.7045 10.74C90.2512 10.98 89.8979 11.34 89.6445 11.82C89.4045 12.2867 89.2845 12.88 89.2845 13.6V19H86.7845V8.32H89.1645V11.2L88.7445 10.32C89.1179 9.64 89.6579 9.12 90.3645 8.76C91.0845 8.38667 91.9112 8.2 92.8445 8.2ZM107.056 19V16.84L106.916 16.38V12.6C106.916 11.8667 106.696 11.3 106.256 10.9C105.816 10.4867 105.149 10.28 104.256 10.28C103.656 10.28 103.063 10.3733 102.476 10.56C101.903 10.7467 101.416 11.0067 101.016 11.34L100.036 9.52C100.609 9.08 101.289 8.75333 102.076 8.54C102.876 8.31333 103.703 8.2 104.556 8.2C106.103 8.2 107.296 8.57333 108.136 9.32C108.989 10.0533 109.416 11.1933 109.416 12.74V19H107.056ZM103.696 19.14C102.896 19.14 102.196 19.0067 101.596 18.74C100.996 18.46 100.529 18.08 100.196 17.6C99.8759 17.1067 99.7159 16.5533 99.7159 15.94C99.7159 15.34 99.8559 14.8 100.136 14.32C100.429 13.84 100.903 13.46 101.556 13.18C102.209 12.9 103.076 12.76 104.156 12.76H107.256V14.42H104.336C103.483 14.42 102.909 14.56 102.616 14.84C102.323 15.1067 102.176 15.44 102.176 15.84C102.176 16.2933 102.356 16.6533 102.716 16.92C103.076 17.1867 103.576 17.32 104.216 17.32C104.829 17.32 105.376 17.18 105.856 16.9C106.349 16.62 106.703 16.2067 106.916 15.66L107.336 17.16C107.096 17.7867 106.663 18.2733 106.036 18.62C105.423 18.9667 104.643 19.14 103.696 19.14ZM112.624 19V4.16H115.124V19H112.624ZM124.173 19V5H126.313L132.433 15.22H131.313L137.333 5H139.473L139.493 19H137.033L137.013 8.86H137.533L132.413 17.4H131.253L126.053 8.86H126.653V19H124.173ZM148.055 19.14C146.868 19.14 145.828 18.9067 144.935 18.44C144.055 17.96 143.368 17.3067 142.875 16.48C142.395 15.6533 142.155 14.7133 142.155 13.66C142.155 12.5933 142.388 11.6533 142.855 10.84C143.335 10.0133 143.988 9.36667 144.815 8.9C145.655 8.43333 146.608 8.2 147.675 8.2C148.715 8.2 149.641 8.42667 150.455 8.88C151.268 9.33333 151.908 9.97333 152.375 10.8C152.841 11.6267 153.075 12.6 153.075 13.72C153.075 13.8267 153.068 13.9467 153.055 14.08C153.055 14.2133 153.048 14.34 153.035 14.46H144.135V12.8H151.715L150.735 13.32C150.748 12.7067 150.621 12.1667 150.355 11.7C150.088 11.2333 149.721 10.8667 149.255 10.6C148.801 10.3333 148.275 10.2 147.675 10.2C147.061 10.2 146.521 10.3333 146.055 10.6C145.601 10.8667 145.241 11.24 144.975 11.72C144.721 12.1867 144.595 12.74 144.595 13.38V13.78C144.595 14.42 144.741 14.9867 145.035 15.48C145.328 15.9733 145.741 16.3533 146.275 16.62C146.808 16.8867 147.421 17.02 148.115 17.02C148.715 17.02 149.255 16.9267 149.735 16.74C150.215 16.5533 150.641 16.26 151.015 15.86L152.355 17.4C151.875 17.96 151.268 18.3933 150.535 18.7C149.815 18.9933 148.988 19.14 148.055 19.14ZM159.496 19.14C158.323 19.14 157.416 18.84 156.776 18.24C156.136 17.6267 155.816 16.7267 155.816 15.54V5.96H158.316V15.48C158.316 15.9867 158.443 16.38 158.696 16.66C158.963 16.94 159.329 17.08 159.796 17.08C160.356 17.08 160.823 16.9333 161.196 16.64L161.896 18.42C161.603 18.66 161.243 18.84 160.816 18.96C160.389 19.08 159.949 19.14 159.496 19.14ZM154.056 10.4V8.4H161.176V10.4H154.056ZM170.013 8.2C170.866 8.2 171.626 8.36667 172.293 8.7C172.973 9.03333 173.506 9.54667 173.893 10.24C174.279 10.92 174.473 11.8 174.473 12.88V19H171.973V13.2C171.973 12.2533 171.746 11.5467 171.293 11.08C170.853 10.6133 170.233 10.38 169.433 10.38C168.846 10.38 168.326 10.5 167.873 10.74C167.419 10.98 167.066 11.34 166.813 11.82C166.573 12.2867 166.453 12.88 166.453 13.6V19H163.953V4.16H166.453V11.2L165.913 10.32C166.286 9.64 166.826 9.12 167.533 8.76C168.253 8.38667 169.079 8.2 170.013 8.2ZM182.463 19.14C181.37 19.14 180.397 18.9067 179.543 18.44C178.69 17.96 178.017 17.3067 177.523 16.48C177.03 15.6533 176.783 14.7133 176.783 13.66C176.783 12.5933 177.03 11.6533 177.523 10.84C178.017 10.0133 178.69 9.36667 179.543 8.9C180.397 8.43333 181.37 8.2 182.463 8.2C183.57 8.2 184.55 8.43333 185.403 8.9C186.27 9.36667 186.943 10.0067 187.423 10.82C187.917 11.6333 188.163 12.58 188.163 13.66C188.163 14.7133 187.917 15.6533 187.423 16.48C186.943 17.3067 186.27 17.96 185.403 18.44C184.55 18.9067 183.57 19.14 182.463 19.14ZM182.463 17C183.077 17 183.623 16.8667 184.103 16.6C184.583 16.3333 184.957 15.9467 185.223 15.44C185.503 14.9333 185.643 14.34 185.643 13.66C185.643 12.9667 185.503 12.3733 185.223 11.88C184.957 11.3733 184.583 10.9867 184.103 10.72C183.623 10.4533 183.083 10.32 182.483 10.32C181.87 10.32 181.323 10.4533 180.843 10.72C180.377 10.9867 180.003 11.3733 179.723 11.88C179.443 12.3733 179.303 12.9667 179.303 13.66C179.303 14.34 179.443 14.9333 179.723 15.44C180.003 15.9467 180.377 16.3333 180.843 16.6C181.323 16.8667 181.863 17 182.463 17ZM195.074 19.14C194.047 19.14 193.121 18.9133 192.294 18.46C191.481 17.9933 190.841 17.3533 190.374 16.54C189.907 15.7267 189.674 14.7667 189.674 13.66C189.674 12.5533 189.907 11.5933 190.374 10.78C190.841 9.96667 191.481 9.33333 192.294 8.88C193.121 8.42667 194.047 8.2 195.074 8.2C195.967 8.2 196.767 8.4 197.474 8.8C198.181 9.18667 198.741 9.78 199.154 10.58C199.567 11.38 199.774 12.4067 199.774 13.66C199.774 14.9 199.574 15.9267 199.174 16.74C198.774 17.54 198.221 18.14 197.514 18.54C196.807 18.94 195.994 19.14 195.074 19.14ZM195.374 17C195.974 17 196.507 16.8667 196.974 16.6C197.454 16.3333 197.834 15.9467 198.114 15.44C198.407 14.9333 198.554 14.34 198.554 13.66C198.554 12.9667 198.407 12.3733 198.114 11.88C197.834 11.3733 197.454 10.9867 196.974 10.72C196.507 10.4533 195.974 10.32 195.374 10.32C194.774 10.32 194.234 10.4533 193.754 10.72C193.287 10.9867 192.907 11.3733 192.614 11.88C192.334 12.3733 192.194 12.9667 192.194 13.66C192.194 14.34 192.334 14.9333 192.614 15.44C192.907 15.9467 193.287 16.3333 193.754 16.6C194.234 16.8667 194.774 17 195.374 17ZM198.614 19V16.48L198.714 13.64L198.514 10.8V4.16H200.994V19H198.614Z" fill="#252525"/>
<g filter="url(#filter0_d_161_40)">
<rect x="7" y="39.136" width="509.186" height="101.837" fill="#9CE09D"/>
<rect x="7.84864" y="39.9846" width="507.488" height="100.14" stroke="#252525" stroke-width="1.69729"/>
</g>
<g filter="url(#filter1_d_161_40)">
<rect x="514.489" y="39.1361" width="16.9729" height="101.837" fill="#E3E1E2"/>
<rect x="515.337" y="39.9848" width="15.2756" height="100.14" stroke="#252525" stroke-width="1.69729"/>
</g>
<g filter="url(#filter2_d_161_40)">
<rect x="529.764" y="39.1361" width="20.3674" height="101.837" fill="#FEBECA"/>
<rect x="530.613" y="39.9848" width="18.6701" height="100.14" stroke="#252525" stroke-width="1.69729"/>
</g>
<g filter="url(#filter3_d_161_40)">
<rect x="550.132" y="39.1361" width="25.4593" height="101.837" fill="#FFDD9E"/>
<rect x="550.98" y="39.9848" width="23.762" height="100.14" stroke="#252525" stroke-width="1.69729"/>
</g>
<g filter="url(#filter4_d_161_40)">
<rect x="575.591" y="39.136" width="33.9457" height="101.837" fill="#BBE1E3"/>
<rect x="576.439" y="39.9846" width="32.2484" height="100.14" stroke="#252525" stroke-width="1.69729"/>
</g>
<defs>
<filter id="filter0_d_161_40" x="0.210856" y="39.136" width="522.764" height="115.415" filterUnits="userSpaceOnUse" color-interpolation-filters="sRGB">
<feFlood flood-opacity="0" result="BackgroundImageFix"/>
<feColorMatrix in="SourceAlpha" type="matrix" values="0 0 0 0 0 0 0 0 0 0 0 0 0 0 0 0 0 0 127 0" result="hardAlpha"/>
<feOffset dy="6.78914"/>
<feGaussianBlur stdDeviation="3.39457"/>
<feComposite in2="hardAlpha" operator="out"/>
<feColorMatrix type="matrix" values="0 0 0 0 0 0 0 0 0 0 0 0 0 0 0 0 0 0 0.25 0"/>
<feBlend mode="normal" in2="BackgroundImageFix" result="effect1_dropShadow_161_40"/>
<feBlend mode="normal" in="SourceGraphic" in2="effect1_dropShadow_161_40" result="shape"/>
</filter>
<filter id="filter1_d_161_40" x="507.699" y="39.1361" width="30.5512" height="115.415" filterUnits="userSpaceOnUse" color-interpolation-filters="sRGB">
<feFlood flood-opacity="0" result="BackgroundImageFix"/>
<feColorMatrix in="SourceAlpha" type="matrix" values="0 0 0 0 0 0 0 0 0 0 0 0 0 0 0 0 0 0 127 0" result="hardAlpha"/>
<feOffset dy="6.78914"/>
<feGaussianBlur stdDeviation="3.39457"/>
<feComposite in2="hardAlpha" operator="out"/>
<feColorMatrix type="matrix" values="0 0 0 0 0 0 0 0 0 0 0 0 0 0 0 0 0 0 0.25 0"/>
<feBlend mode="normal" in2="BackgroundImageFix" result="effect1_dropShadow_161_40"/>
<feBlend mode="normal" in="SourceGraphic" in2="effect1_dropShadow_161_40" result="shape"/>
</filter>
<filter id="filter2_d_161_40" x="522.975" y="39.1361" width="33.9457" height="115.415" filterUnits="userSpaceOnUse" color-interpolation-filters="sRGB">
<feFlood flood-opacity="0" result="BackgroundImageFix"/>
<feColorMatrix in="SourceAlpha" type="matrix" values="0 0 0 0 0 0 0 0 0 0 0 0 0 0 0 0 0 0 127 0" result="hardAlpha"/>
<feOffset dy="6.78914"/>
<feGaussianBlur stdDeviation="3.39457"/>
<feComposite in2="hardAlpha" operator="out"/>
<feColorMatrix type="matrix" values="0 0 0 0 0 0 0 0 0 0 0 0 0 0 0 0 0 0 0.25 0"/>
<feBlend mode="normal" in2="BackgroundImageFix" result="effect1_dropShadow_161_40"/>
<feBlend mode="normal" in="SourceGraphic" in2="effect1_dropShadow_161_40" result="shape"/>
</filter>
<filter id="filter3_d_161_40" x="543.342" y="39.1361" width="39.0376" height="115.415" filterUnits="userSpaceOnUse" color-interpolation-filters="sRGB">
<feFlood flood-opacity="0" result="BackgroundImageFix"/>
<feColorMatrix in="SourceAlpha" type="matrix" values="0 0 0 0 0 0 0 0 0 0 0 0 0 0 0 0 0 0 127 0" result="hardAlpha"/>
<feOffset dy="6.78914"/>
<feGaussianBlur stdDeviation="3.39457"/>
<feComposite in2="hardAlpha" operator="out"/>
<feColorMatrix type="matrix" values="0 0 0 0 0 0 0 0 0 0 0 0 0 0 0 0 0 0 0.25 0"/>
<feBlend mode="normal" in2="BackgroundImageFix" result="effect1_dropShadow_161_40"/>
<feBlend mode="normal" in="SourceGraphic" in2="effect1_dropShadow_161_40" result="shape"/>
</filter>
<filter id="filter4_d_161_40" x="568.802" y="39.136" width="47.524" height="115.415" filterUnits="userSpaceOnUse" color-interpolation-filters="sRGB">
<feFlood flood-opacity="0" result="BackgroundImageFix"/>
<feColorMatrix in="SourceAlpha" type="matrix" values="0 0 0 0 0 0 0 0 0 0 0 0 0 0 0 0 0 0 127 0" result="hardAlpha"/>
<feOffset dy="6.78914"/>
<feGaussianBlur stdDeviation="3.39457"/>
<feComposite in2="hardAlpha" operator="out"/>
<feColorMatrix type="matrix" values="0 0 0 0 0 0 0 0 0 0 0 0 0 0 0 0 0 0 0.25 0"/>
<feBlend mode="normal" in2="BackgroundImageFix" result="effect1_dropShadow_161_40"/>
<feBlend mode="normal" in="SourceGraphic" in2="effect1_dropShadow_161_40" result="shape"/>
</filter>
</defs>
</svg>
