<svg width="617" height="295" viewBox="0 0 617 295" fill="none" xmlns="http://www.w3.org/2000/svg">
<path d="M1.4739 258C1.4739 260.5 3.50031 262.526 6 262.526C8.49969 262.526 10.5261 260.5 10.5261 258C10.5261 255.5 8.49969 253.474 6 253.474C3.50031 253.474 1.4739 255.5 1.4739 258ZM605.474 258C605.474 260.5 607.5 262.526 610 262.526C612.5 262.526 614.526 260.5 614.526 258C614.526 255.5 612.5 253.474 610 253.474C607.5 253.474 605.474 255.5 605.474 258ZM6 258.849H610V257.151H6V258.849Z" fill="#252525"/>
<path d="M224.644 289.729V278.16H220.081V275.472H232.506V278.16H227.943V289.729H224.644ZM240.717 278.608C241.586 278.608 242.36 278.785 243.039 279.138C243.731 279.477 244.275 280.007 244.668 280.726C245.062 281.433 245.259 282.342 245.259 283.456V289.729H242.082V283.945C242.082 283.062 241.885 282.41 241.491 281.989C241.111 281.568 240.568 281.358 239.862 281.358C239.359 281.358 238.904 281.466 238.497 281.684C238.103 281.887 237.791 282.207 237.56 282.641C237.343 283.076 237.234 283.632 237.234 284.311V289.729H234.057V274.616H237.234V281.806L236.521 280.889C236.915 280.156 237.479 279.593 238.212 279.199C238.945 278.805 239.78 278.608 240.717 278.608ZM253.657 289.892C252.408 289.892 251.308 289.647 250.357 289.159C249.42 288.67 248.694 288.004 248.178 287.163C247.662 286.307 247.404 285.336 247.404 284.25C247.404 283.15 247.655 282.179 248.157 281.337C248.673 280.482 249.373 279.817 250.255 279.341C251.138 278.853 252.136 278.608 253.249 278.608C254.322 278.608 255.286 278.839 256.142 279.301C257.011 279.749 257.696 280.401 258.199 281.256C258.701 282.098 258.952 283.109 258.952 284.291C258.952 284.413 258.945 284.556 258.932 284.718C258.918 284.868 258.905 285.01 258.891 285.146H249.991V283.293H257.221L255.999 283.843C255.999 283.272 255.884 282.777 255.653 282.356C255.422 281.935 255.103 281.609 254.695 281.378C254.288 281.134 253.813 281.012 253.27 281.012C252.727 281.012 252.245 281.134 251.824 281.378C251.416 281.609 251.097 281.942 250.866 282.376C250.636 282.797 250.52 283.3 250.52 283.883V284.372C250.52 284.97 250.649 285.499 250.907 285.961C251.179 286.409 251.552 286.755 252.027 287C252.516 287.23 253.086 287.346 253.738 287.346C254.322 287.346 254.831 287.258 255.266 287.081C255.714 286.905 256.121 286.64 256.488 286.287L258.178 288.12C257.676 288.69 257.044 289.131 256.284 289.444C255.524 289.742 254.648 289.892 253.657 289.892ZM270.522 289.892C269.585 289.892 268.682 289.783 267.813 289.566C266.958 289.335 266.279 289.05 265.777 288.711L266.836 286.429C267.338 286.742 267.929 287 268.608 287.203C269.3 287.393 269.979 287.488 270.644 287.488C271.378 287.488 271.894 287.4 272.192 287.224C272.505 287.047 272.661 286.803 272.661 286.49C272.661 286.232 272.539 286.042 272.294 285.92C272.063 285.784 271.751 285.683 271.357 285.615C270.964 285.547 270.529 285.479 270.054 285.411C269.592 285.343 269.124 285.255 268.648 285.146C268.173 285.024 267.739 284.847 267.345 284.617C266.951 284.386 266.632 284.074 266.388 283.68C266.157 283.286 266.041 282.777 266.041 282.152C266.041 281.46 266.238 280.849 266.632 280.319C267.039 279.79 267.623 279.375 268.384 279.077C269.144 278.764 270.054 278.608 271.113 278.608C271.86 278.608 272.62 278.69 273.394 278.853C274.168 279.016 274.813 279.253 275.329 279.566L274.27 281.826C273.74 281.514 273.204 281.304 272.661 281.195C272.131 281.073 271.615 281.012 271.113 281.012C270.407 281.012 269.891 281.107 269.565 281.297C269.239 281.487 269.076 281.731 269.076 282.03C269.076 282.302 269.192 282.505 269.422 282.641C269.667 282.777 269.986 282.885 270.38 282.967C270.773 283.048 271.201 283.123 271.663 283.191C272.138 283.245 272.613 283.334 273.089 283.456C273.564 283.578 273.991 283.754 274.372 283.985C274.765 284.203 275.085 284.508 275.329 284.902C275.573 285.282 275.696 285.784 275.696 286.409C275.696 287.088 275.492 287.692 275.085 288.222C274.677 288.738 274.087 289.145 273.313 289.444C272.552 289.742 271.622 289.892 270.522 289.892ZM284.377 289.729V287.59L284.173 287.122V283.293C284.173 282.614 283.963 282.084 283.542 281.704C283.135 281.324 282.503 281.134 281.648 281.134C281.064 281.134 280.487 281.229 279.917 281.419C279.36 281.595 278.885 281.84 278.491 282.152L277.35 279.932C277.948 279.511 278.667 279.185 279.509 278.955C280.351 278.724 281.207 278.608 282.076 278.608C283.746 278.608 285.042 279.002 285.966 279.79C286.889 280.577 287.351 281.806 287.351 283.476V289.729H284.377ZM281.037 289.892C280.181 289.892 279.448 289.749 278.837 289.464C278.226 289.165 277.758 288.765 277.432 288.262C277.106 287.76 276.943 287.197 276.943 286.572C276.943 285.92 277.099 285.35 277.411 284.861C277.737 284.372 278.247 283.992 278.939 283.72C279.632 283.435 280.535 283.293 281.648 283.293H284.56V285.146H281.994C281.247 285.146 280.731 285.268 280.446 285.513C280.175 285.757 280.039 286.063 280.039 286.429C280.039 286.837 280.195 287.163 280.507 287.407C280.833 287.638 281.275 287.753 281.831 287.753C282.361 287.753 282.836 287.631 283.257 287.387C283.678 287.129 283.983 286.755 284.173 286.266L284.662 287.733C284.431 288.439 284.011 288.975 283.4 289.342C282.788 289.709 282.001 289.892 281.037 289.892ZM304.26 278.608C305.129 278.608 305.896 278.785 306.561 279.138C307.24 279.477 307.77 280.007 308.15 280.726C308.544 281.433 308.74 282.342 308.74 283.456V289.729H305.563V283.945C305.563 283.062 305.38 282.41 305.013 281.989C304.647 281.568 304.131 281.358 303.465 281.358C303.004 281.358 302.589 281.466 302.223 281.684C301.856 281.887 301.571 282.2 301.367 282.621C301.164 283.042 301.062 283.578 301.062 284.23V289.729H297.885V283.945C297.885 283.062 297.701 282.41 297.335 281.989C296.982 281.568 296.472 281.358 295.807 281.358C295.345 281.358 294.931 281.466 294.565 281.684C294.198 281.887 293.913 282.2 293.709 282.621C293.506 283.042 293.404 283.578 293.404 284.23V289.729H290.226V278.771H293.261V281.765L292.691 280.889C293.071 280.143 293.607 279.579 294.3 279.199C295.006 278.805 295.807 278.608 296.703 278.608C297.708 278.608 298.584 278.866 299.331 279.382C300.091 279.885 300.593 280.659 300.838 281.704L299.718 281.399C300.084 280.543 300.668 279.864 301.469 279.362C302.284 278.859 303.214 278.608 304.26 278.608ZM317.106 289.892C315.857 289.892 314.757 289.647 313.807 289.159C312.87 288.67 312.143 288.004 311.627 287.163C311.111 286.307 310.853 285.336 310.853 284.25C310.853 283.15 311.104 282.179 311.607 281.337C312.123 280.482 312.822 279.817 313.705 279.341C314.587 278.853 315.585 278.608 316.699 278.608C317.771 278.608 318.735 278.839 319.591 279.301C320.46 279.749 321.146 280.401 321.648 281.256C322.15 282.098 322.402 283.109 322.402 284.291C322.402 284.413 322.395 284.556 322.381 284.718C322.368 284.868 322.354 285.01 322.34 285.146H313.44V283.293H320.67L319.448 283.843C319.448 283.272 319.333 282.777 319.102 282.356C318.871 281.935 318.552 281.609 318.145 281.378C317.737 281.134 317.262 281.012 316.719 281.012C316.176 281.012 315.694 281.134 315.273 281.378C314.866 281.609 314.547 281.942 314.316 282.376C314.085 282.797 313.969 283.3 313.969 283.883V284.372C313.969 284.97 314.098 285.499 314.356 285.961C314.628 286.409 315.001 286.755 315.477 287C315.965 287.23 316.536 287.346 317.187 287.346C317.771 287.346 318.281 287.258 318.715 287.081C319.163 286.905 319.57 286.64 319.937 286.287L321.628 288.12C321.125 288.69 320.494 289.131 319.733 289.444C318.973 289.742 318.097 289.892 317.106 289.892ZM334.99 289.892C333.958 289.892 333.028 289.661 332.2 289.199C331.371 288.724 330.713 288.066 330.224 287.224C329.749 286.382 329.511 285.391 329.511 284.25C329.511 283.096 329.749 282.098 330.224 281.256C330.713 280.414 331.371 279.762 332.2 279.301C333.028 278.839 333.958 278.608 334.99 278.608C335.913 278.608 336.721 278.812 337.414 279.219C338.106 279.627 338.642 280.244 339.023 281.073C339.403 281.901 339.593 282.96 339.593 284.25C339.593 285.526 339.41 286.586 339.043 287.427C338.676 288.256 338.147 288.873 337.454 289.281C336.775 289.688 335.954 289.892 334.99 289.892ZM335.54 287.285C336.056 287.285 336.524 287.163 336.945 286.918C337.366 286.674 337.699 286.328 337.943 285.879C338.201 285.418 338.33 284.875 338.33 284.25C338.33 283.612 338.201 283.069 337.943 282.621C337.699 282.173 337.366 281.826 336.945 281.582C336.524 281.337 336.056 281.215 335.54 281.215C335.01 281.215 334.535 281.337 334.114 281.582C333.693 281.826 333.354 282.173 333.096 282.621C332.851 283.069 332.729 283.612 332.729 284.25C332.729 284.875 332.851 285.418 333.096 285.879C333.354 286.328 333.693 286.674 334.114 286.918C334.535 287.163 335.01 287.285 335.54 287.285ZM338.412 289.729V287.488L338.473 284.23L338.269 280.991V274.616H341.446V289.729H338.412ZM351.108 289.729V287.59L350.905 287.122V283.293C350.905 282.614 350.694 282.084 350.273 281.704C349.866 281.324 349.235 281.134 348.379 281.134C347.795 281.134 347.218 281.229 346.648 281.419C346.091 281.595 345.616 281.84 345.222 282.152L344.082 279.932C344.679 279.511 345.399 279.185 346.241 278.955C347.082 278.724 347.938 278.608 348.807 278.608C350.477 278.608 351.774 279.002 352.697 279.79C353.62 280.577 354.082 281.806 354.082 283.476V289.729H351.108ZM347.768 289.892C346.913 289.892 346.179 289.749 345.568 289.464C344.957 289.165 344.489 288.765 344.163 288.262C343.837 287.76 343.674 287.197 343.674 286.572C343.674 285.92 343.83 285.35 344.143 284.861C344.469 284.372 344.978 283.992 345.67 283.72C346.363 283.435 347.266 283.293 348.379 283.293H351.292V285.146H348.725C347.979 285.146 347.463 285.268 347.177 285.513C346.906 285.757 346.77 286.063 346.77 286.429C346.77 286.837 346.926 287.163 347.239 287.407C347.564 287.638 348.006 287.753 348.562 287.753C349.092 287.753 349.567 287.631 349.988 287.387C350.409 287.129 350.715 286.755 350.905 286.266L351.393 287.733C351.163 288.439 350.742 288.975 350.131 289.342C349.52 289.709 348.732 289.892 347.768 289.892ZM358.144 293.843C357.573 293.843 357.01 293.755 356.453 293.578C355.896 293.402 355.442 293.157 355.089 292.845L356.25 290.584C356.494 290.802 356.772 290.971 357.085 291.093C357.41 291.216 357.73 291.277 358.042 291.277C358.49 291.277 358.843 291.168 359.101 290.951C359.373 290.747 359.617 290.401 359.834 289.912L360.404 288.568L360.649 288.222L364.58 278.771H367.635L362.686 290.401C362.333 291.284 361.925 291.976 361.464 292.478C361.016 292.981 360.513 293.334 359.956 293.538C359.413 293.741 358.809 293.843 358.144 293.843ZM360.017 290.157L355.129 278.771H358.408L362.197 287.937L360.017 290.157Z" fill="#252525"/>
<path d="M609.636 161.703C609.967 161.371 609.967 160.834 609.636 160.503L604.235 155.102C603.904 154.77 603.366 154.77 603.035 155.102C602.703 155.433 602.703 155.971 603.035 156.302L607.836 161.103L603.035 165.903C602.703 166.235 602.703 166.772 603.035 167.103C603.366 167.435 603.904 167.435 604.235 167.103L609.636 161.703ZM6 161.951H609.036V160.254H6V161.951Z" fill="#252525"/>
<line x1="309.436" y1="162.8" x2="309.436" y2="183.167" stroke="#252525" stroke-width="1.69729"/>
<path d="M194.322 209.956V195.699H199.658C200.867 195.699 201.905 195.896 202.774 196.29C203.643 196.67 204.309 197.227 204.77 197.96C205.246 198.68 205.483 199.555 205.483 200.587C205.483 201.592 205.246 202.461 204.77 203.194C204.309 203.914 203.643 204.471 202.774 204.865C201.905 205.245 200.867 205.435 199.658 205.435H195.157L195.829 204.742V209.956H194.322ZM204.058 209.956L200.391 204.783H202.021L205.707 209.956H204.058ZM195.829 204.865L195.157 204.152H199.617C201.043 204.152 202.123 203.839 202.856 203.215C203.603 202.59 203.976 201.714 203.976 200.587C203.976 199.447 203.603 198.564 202.856 197.94C202.123 197.315 201.043 197.003 199.617 197.003H195.157L195.829 196.29V204.865ZM213.277 210.058C212.164 210.058 211.186 209.827 210.344 209.366C209.502 208.891 208.844 208.246 208.368 207.431C207.893 206.603 207.656 205.659 207.656 204.6C207.656 203.541 207.88 202.604 208.328 201.789C208.789 200.974 209.414 200.336 210.201 199.875C211.003 199.399 211.899 199.162 212.89 199.162C213.895 199.162 214.784 199.393 215.558 199.854C216.346 200.302 216.963 200.94 217.412 201.769C217.86 202.583 218.084 203.527 218.084 204.6C218.084 204.668 218.077 204.742 218.063 204.824C218.063 204.892 218.063 204.966 218.063 205.048H208.755V203.968H217.289L216.719 204.396C216.719 203.622 216.549 202.936 216.21 202.339C215.884 201.728 215.436 201.253 214.866 200.913C214.295 200.574 213.637 200.404 212.89 200.404C212.157 200.404 211.498 200.574 210.914 200.913C210.33 201.253 209.876 201.728 209.55 202.339C209.224 202.95 209.061 203.649 209.061 204.437V204.661C209.061 205.476 209.237 206.195 209.59 206.82C209.957 207.431 210.459 207.913 211.098 208.266C211.749 208.605 212.489 208.775 213.318 208.775C213.969 208.775 214.574 208.66 215.13 208.429C215.701 208.198 216.19 207.845 216.597 207.37L217.412 208.307C216.936 208.877 216.339 209.311 215.619 209.61C214.913 209.909 214.132 210.058 213.277 210.058ZM225.467 210.058C224.408 210.058 223.458 209.827 222.616 209.366C221.787 208.891 221.136 208.246 220.66 207.431C220.185 206.603 219.948 205.659 219.948 204.6C219.948 203.527 220.185 202.583 220.66 201.769C221.136 200.954 221.787 200.316 222.616 199.854C223.458 199.393 224.408 199.162 225.467 199.162C226.377 199.162 227.198 199.338 227.932 199.691C228.665 200.044 229.242 200.574 229.663 201.28L228.583 202.013C228.217 201.47 227.762 201.069 227.219 200.811C226.676 200.553 226.085 200.424 225.447 200.424C224.686 200.424 224.001 200.601 223.39 200.954C222.779 201.293 222.297 201.776 221.944 202.4C221.591 203.025 221.414 203.758 221.414 204.6C221.414 205.442 221.591 206.175 221.944 206.799C222.297 207.424 222.779 207.913 223.39 208.266C224.001 208.605 224.686 208.775 225.447 208.775C226.085 208.775 226.676 208.646 227.219 208.388C227.762 208.13 228.217 207.736 228.583 207.207L229.663 207.94C229.242 208.633 228.665 209.162 227.932 209.529C227.198 209.882 226.377 210.058 225.467 210.058ZM236.867 210.058C235.753 210.058 234.776 209.827 233.934 209.366C233.092 208.891 232.433 208.246 231.958 207.431C231.483 206.603 231.245 205.659 231.245 204.6C231.245 203.541 231.469 202.604 231.917 201.789C232.379 200.974 233.004 200.336 233.791 199.875C234.592 199.399 235.488 199.162 236.48 199.162C237.484 199.162 238.374 199.393 239.148 199.854C239.935 200.302 240.553 200.94 241.001 201.769C241.449 202.583 241.673 203.527 241.673 204.6C241.673 204.668 241.667 204.742 241.653 204.824C241.653 204.892 241.653 204.966 241.653 205.048H232.345V203.968H240.879L240.309 204.396C240.309 203.622 240.139 202.936 239.799 202.339C239.474 201.728 239.026 201.253 238.455 200.913C237.885 200.574 237.226 200.404 236.48 200.404C235.746 200.404 235.088 200.574 234.504 200.913C233.92 201.253 233.465 201.728 233.139 202.339C232.813 202.95 232.651 203.649 232.651 204.437V204.661C232.651 205.476 232.827 206.195 233.18 206.82C233.547 207.431 234.049 207.913 234.687 208.266C235.339 208.605 236.079 208.775 236.907 208.775C237.559 208.775 238.163 208.66 238.72 208.429C239.29 208.198 239.779 207.845 240.186 207.37L241.001 208.307C240.526 208.877 239.928 209.311 239.209 209.61C238.503 209.909 237.722 210.058 236.867 210.058ZM244.617 209.956V199.264H246.063V209.956H244.617ZM245.35 196.901C245.051 196.901 244.8 196.799 244.596 196.595C244.393 196.392 244.291 196.147 244.291 195.862C244.291 195.577 244.393 195.339 244.596 195.149C244.8 194.946 245.051 194.844 245.35 194.844C245.649 194.844 245.9 194.939 246.104 195.129C246.307 195.319 246.409 195.557 246.409 195.842C246.409 196.141 246.307 196.392 246.104 196.595C245.913 196.799 245.662 196.901 245.35 196.901ZM252.836 209.956L248.09 199.264H249.598L253.956 209.182H253.243L257.663 199.264H259.089L254.323 209.956H252.836ZM265.369 210.058C264.256 210.058 263.278 209.827 262.436 209.366C261.594 208.891 260.936 208.246 260.461 207.431C259.985 206.603 259.748 205.659 259.748 204.6C259.748 203.541 259.972 202.604 260.42 201.789C260.881 200.974 261.506 200.336 262.294 199.875C263.095 199.399 263.991 199.162 264.982 199.162C265.987 199.162 266.876 199.393 267.65 199.854C268.438 200.302 269.056 200.94 269.504 201.769C269.952 202.583 270.176 203.527 270.176 204.6C270.176 204.668 270.169 204.742 270.155 204.824C270.155 204.892 270.155 204.966 270.155 205.048H260.847V203.968H269.381L268.811 204.396C268.811 203.622 268.641 202.936 268.302 202.339C267.976 201.728 267.528 201.253 266.958 200.913C266.387 200.574 265.729 200.404 264.982 200.404C264.249 200.404 263.59 200.574 263.006 200.913C262.423 201.253 261.968 201.728 261.642 202.339C261.316 202.95 261.153 203.649 261.153 204.437V204.661C261.153 205.476 261.33 206.195 261.683 206.82C262.049 207.431 262.552 207.913 263.19 208.266C263.842 208.605 264.582 208.775 265.41 208.775C266.062 208.775 266.666 208.66 267.222 208.429C267.793 208.198 268.282 207.845 268.689 207.37L269.504 208.307C269.028 208.877 268.431 209.311 267.711 209.61C267.005 209.909 266.224 210.058 265.369 210.058ZM273.119 209.956V199.264H274.504V202.176L274.362 201.667C274.66 200.852 275.163 200.234 275.869 199.813C276.575 199.379 277.451 199.162 278.496 199.162V200.567C278.442 200.567 278.388 200.567 278.333 200.567C278.279 200.553 278.225 200.547 278.17 200.547C277.043 200.547 276.161 200.893 275.523 201.585C274.884 202.264 274.565 203.235 274.565 204.498V209.956H273.119ZM291.187 214.01C290.209 214.01 289.272 213.867 288.376 213.582C287.48 213.297 286.754 212.889 286.197 212.36L286.93 211.26C287.432 211.708 288.05 212.061 288.783 212.319C289.53 212.591 290.318 212.726 291.146 212.726C292.504 212.726 293.502 212.407 294.14 211.769C294.778 211.145 295.097 210.167 295.097 208.836V206.168L295.301 204.335L295.158 202.502V199.264H296.543V208.653C296.543 210.5 296.089 211.851 295.179 212.706C294.283 213.575 292.952 214.01 291.187 214.01ZM290.922 209.549C289.904 209.549 288.987 209.332 288.172 208.897C287.358 208.449 286.713 207.831 286.238 207.044C285.776 206.256 285.545 205.353 285.545 204.335C285.545 203.317 285.776 202.42 286.238 201.647C286.713 200.859 287.358 200.248 288.172 199.813C288.987 199.379 289.904 199.162 290.922 199.162C291.873 199.162 292.728 199.359 293.488 199.752C294.249 200.146 294.853 200.73 295.301 201.504C295.749 202.278 295.973 203.222 295.973 204.335C295.973 205.448 295.749 206.392 295.301 207.166C294.853 207.94 294.249 208.531 293.488 208.938C292.728 209.345 291.873 209.549 290.922 209.549ZM291.065 208.266C291.852 208.266 292.551 208.103 293.162 207.777C293.774 207.438 294.256 206.976 294.609 206.392C294.962 205.795 295.138 205.109 295.138 204.335C295.138 203.561 294.962 202.882 294.609 202.298C294.256 201.714 293.774 201.26 293.162 200.934C292.551 200.594 291.852 200.424 291.065 200.424C290.291 200.424 289.591 200.594 288.967 200.934C288.356 201.26 287.874 201.714 287.521 202.298C287.181 202.882 287.012 203.561 287.012 204.335C287.012 205.109 287.181 205.795 287.521 206.392C287.874 206.976 288.356 207.438 288.967 207.777C289.591 208.103 290.291 208.266 291.065 208.266ZM305.109 210.058C303.996 210.058 303.018 209.827 302.177 209.366C301.335 208.891 300.676 208.246 300.201 207.431C299.726 206.603 299.488 205.659 299.488 204.6C299.488 203.541 299.712 202.604 300.16 201.789C300.622 200.974 301.246 200.336 302.034 199.875C302.835 199.399 303.731 199.162 304.722 199.162C305.727 199.162 306.617 199.393 307.391 199.854C308.178 200.302 308.796 200.94 309.244 201.769C309.692 202.583 309.916 203.527 309.916 204.6C309.916 204.668 309.909 204.742 309.896 204.824C309.896 204.892 309.896 204.966 309.896 205.048H300.588V203.968H309.122L308.552 204.396C308.552 203.622 308.382 202.936 308.042 202.339C307.716 201.728 307.268 201.253 306.698 200.913C306.128 200.574 305.469 200.404 304.722 200.404C303.989 200.404 303.331 200.574 302.747 200.913C302.163 201.253 301.708 201.728 301.382 202.339C301.056 202.95 300.893 203.649 300.893 204.437V204.661C300.893 205.476 301.07 206.195 301.423 206.82C301.79 207.431 302.292 207.913 302.93 208.266C303.582 208.605 304.322 208.775 305.15 208.775C305.802 208.775 306.406 208.66 306.963 208.429C307.533 208.198 308.022 207.845 308.429 207.37L309.244 208.307C308.769 208.877 308.171 209.311 307.452 209.61C306.746 209.909 305.965 210.058 305.109 210.058ZM316.241 210.058C315.236 210.058 314.462 209.787 313.919 209.244C313.376 208.7 313.104 207.933 313.104 206.942V196.901H314.55V206.861C314.55 207.485 314.706 207.967 315.018 208.307C315.344 208.646 315.806 208.816 316.403 208.816C317.042 208.816 317.571 208.633 317.992 208.266L318.501 209.305C318.216 209.563 317.87 209.753 317.463 209.875C317.069 209.997 316.661 210.058 316.241 210.058ZM311.189 200.465V199.264H317.809V200.465H311.189ZM324.006 210.058C323.123 210.058 322.288 209.936 321.5 209.692C320.713 209.434 320.095 209.115 319.647 208.734L320.299 207.594C320.733 207.92 321.29 208.205 321.969 208.449C322.648 208.68 323.361 208.795 324.107 208.795C325.126 208.795 325.859 208.639 326.307 208.327C326.755 208.001 326.979 207.573 326.979 207.044C326.979 206.65 326.85 206.345 326.592 206.127C326.348 205.897 326.022 205.727 325.615 205.618C325.207 205.496 324.752 205.394 324.25 205.313C323.748 205.231 323.245 205.136 322.743 205.028C322.254 204.919 321.806 204.763 321.399 204.559C320.991 204.342 320.659 204.05 320.401 203.683C320.156 203.317 320.034 202.828 320.034 202.217C320.034 201.633 320.197 201.11 320.523 200.649C320.849 200.187 321.324 199.827 321.949 199.569C322.587 199.297 323.361 199.162 324.27 199.162C324.963 199.162 325.655 199.257 326.348 199.447C327.04 199.623 327.611 199.861 328.059 200.16L327.427 201.321C326.952 200.995 326.443 200.764 325.9 200.628C325.357 200.479 324.814 200.404 324.27 200.404C323.306 200.404 322.593 200.574 322.132 200.913C321.684 201.239 321.46 201.66 321.46 202.176C321.46 202.583 321.582 202.902 321.826 203.133C322.084 203.364 322.417 203.547 322.824 203.683C323.245 203.805 323.7 203.907 324.189 203.989C324.691 204.07 325.187 204.172 325.676 204.294C326.178 204.403 326.633 204.559 327.04 204.763C327.461 204.953 327.794 205.231 328.038 205.598C328.296 205.951 328.425 206.419 328.425 207.003C328.425 207.628 328.249 208.171 327.896 208.633C327.556 209.081 327.054 209.434 326.389 209.692C325.737 209.936 324.943 210.058 324.006 210.058ZM340.035 212.401V193.255H342.072V212.401H340.035ZM340.768 210.201C339.627 210.201 338.534 210.051 337.489 209.753C336.443 209.44 335.601 209.04 334.963 208.551L336.084 206.066C336.695 206.501 337.414 206.861 338.242 207.146C339.084 207.417 339.933 207.553 340.788 207.553C341.44 207.553 341.963 207.492 342.357 207.37C342.764 207.234 343.063 207.051 343.253 206.82C343.443 206.589 343.538 206.324 343.538 206.026C343.538 205.645 343.389 205.347 343.09 205.129C342.791 204.899 342.397 204.715 341.909 204.579C341.42 204.43 340.877 204.294 340.279 204.172C339.695 204.036 339.105 203.873 338.507 203.683C337.923 203.493 337.387 203.249 336.898 202.95C336.409 202.651 336.009 202.258 335.697 201.769C335.398 201.28 335.248 200.655 335.248 199.895C335.248 199.08 335.466 198.34 335.9 197.675C336.348 196.996 337.014 196.46 337.896 196.066C338.792 195.658 339.913 195.455 341.257 195.455C342.153 195.455 343.036 195.563 343.905 195.781C344.774 195.984 345.541 196.297 346.206 196.718L345.188 199.223C344.522 198.843 343.857 198.564 343.192 198.388C342.526 198.198 341.875 198.103 341.236 198.103C340.598 198.103 340.076 198.177 339.668 198.327C339.261 198.476 338.969 198.673 338.792 198.917C338.616 199.148 338.528 199.42 338.528 199.732C338.528 200.099 338.677 200.397 338.976 200.628C339.274 200.845 339.668 201.022 340.157 201.158C340.646 201.293 341.182 201.429 341.766 201.565C342.363 201.701 342.954 201.857 343.538 202.033C344.135 202.21 344.679 202.448 345.167 202.746C345.656 203.045 346.05 203.439 346.349 203.928C346.661 204.416 346.817 205.034 346.817 205.781C346.817 206.582 346.593 207.315 346.145 207.981C345.697 208.646 345.025 209.182 344.129 209.59C343.246 209.997 342.126 210.201 340.768 210.201ZM353.023 210.201C352.032 210.201 351.047 210.072 350.07 209.814C349.106 209.542 348.277 209.162 347.585 208.673L348.888 206.148C349.432 206.541 350.056 206.854 350.762 207.085C351.482 207.315 352.208 207.431 352.942 207.431C353.77 207.431 354.422 207.268 354.897 206.942C355.372 206.616 355.61 206.161 355.61 205.577C355.61 205.211 355.515 204.885 355.325 204.6C355.134 204.315 354.795 204.097 354.306 203.948C353.831 203.799 353.159 203.724 352.29 203.724H348.644L349.377 195.699H358.074V198.347H350.559L352.269 196.84L351.76 202.563L350.049 201.056H353.064C354.476 201.056 355.61 201.253 356.465 201.647C357.334 202.027 357.966 202.549 358.359 203.215C358.753 203.88 358.95 204.634 358.95 205.476C358.95 206.317 358.739 207.098 358.319 207.818C357.898 208.524 357.246 209.101 356.363 209.549C355.494 209.984 354.381 210.201 353.023 210.201ZM366.399 210.201C365.231 210.201 364.186 209.916 363.262 209.345C362.339 208.762 361.612 207.92 361.083 206.82C360.553 205.72 360.289 204.389 360.289 202.828C360.289 201.266 360.553 199.936 361.083 198.836C361.612 197.736 362.339 196.901 363.262 196.331C364.186 195.747 365.231 195.455 366.399 195.455C367.58 195.455 368.626 195.747 369.535 196.331C370.459 196.901 371.185 197.736 371.715 198.836C372.244 199.936 372.509 201.266 372.509 202.828C372.509 204.389 372.244 205.72 371.715 206.82C371.185 207.92 370.459 208.762 369.535 209.345C368.626 209.916 367.58 210.201 366.399 210.201ZM366.399 207.41C366.956 207.41 367.438 207.254 367.845 206.942C368.266 206.63 368.592 206.134 368.823 205.455C369.067 204.776 369.189 203.901 369.189 202.828C369.189 201.755 369.067 200.879 368.823 200.2C368.592 199.522 368.266 199.026 367.845 198.714C367.438 198.401 366.956 198.245 366.399 198.245C365.856 198.245 365.374 198.401 364.953 198.714C364.545 199.026 364.22 199.522 363.975 200.2C363.744 200.879 363.629 201.755 363.629 202.828C363.629 203.901 363.744 204.776 363.975 205.455C364.22 206.134 364.545 206.63 364.953 206.942C365.374 207.254 365.856 207.41 366.399 207.41ZM380.222 210.201C379.055 210.201 378.009 209.916 377.086 209.345C376.163 208.762 375.436 207.92 374.907 206.82C374.377 205.72 374.112 204.389 374.112 202.828C374.112 201.266 374.377 199.936 374.907 198.836C375.436 197.736 376.163 196.901 377.086 196.331C378.009 195.747 379.055 195.455 380.222 195.455C381.404 195.455 382.449 195.747 383.359 196.331C384.282 196.901 385.009 197.736 385.538 198.836C386.068 199.936 386.333 201.266 386.333 202.828C386.333 204.389 386.068 205.72 385.538 206.82C385.009 207.92 384.282 208.762 383.359 209.345C382.449 209.916 381.404 210.201 380.222 210.201ZM380.222 207.41C380.779 207.41 381.261 207.254 381.669 206.942C382.089 206.63 382.415 206.134 382.646 205.455C382.891 204.776 383.013 203.901 383.013 202.828C383.013 201.755 382.891 200.879 382.646 200.2C382.415 199.522 382.089 199.026 381.669 198.714C381.261 198.401 380.779 198.245 380.222 198.245C379.679 198.245 379.197 198.401 378.776 198.714C378.369 199.026 378.043 199.522 377.799 200.2C377.568 200.879 377.452 201.755 377.452 202.828C377.452 203.901 377.568 204.776 377.799 205.455C378.043 206.134 378.369 206.63 378.776 206.942C379.197 207.254 379.679 207.41 380.222 207.41Z" fill="#252525"/>
<path d="M13.22 19.2C12.1267 19.2 11.08 19.0467 10.08 18.74C9.08 18.42 8.28667 18.0133 7.7 17.52L8.6 15.5C9.16 15.94 9.85333 16.3067 10.68 16.6C11.5067 16.8933 12.3533 17.04 13.22 17.04C13.9533 17.04 14.5467 16.96 15 16.8C15.4533 16.64 15.7867 16.4267 16 16.16C16.2133 15.88 16.32 15.5667 16.32 15.22C16.32 14.7933 16.1667 14.4533 15.86 14.2C15.5533 13.9333 15.1533 13.7267 14.66 13.58C14.18 13.42 13.64 13.2733 13.04 13.14C12.4533 13.0067 11.86 12.8533 11.26 12.68C10.6733 12.4933 10.1333 12.26 9.64 11.98C9.16 11.6867 8.76667 11.3 8.46 10.82C8.15333 10.34 8 9.72667 8 8.98C8 8.22 8.2 7.52667 8.6 6.9C9.01333 6.26 9.63333 5.75333 10.46 5.38C11.3 4.99333 12.36 4.8 13.64 4.8C14.48 4.8 15.3133 4.90667 16.14 5.12C16.9667 5.33333 17.6867 5.64 18.3 6.04L17.48 8.06C16.8533 7.68667 16.2067 7.41333 15.54 7.24C14.8733 7.05333 14.2333 6.96 13.62 6.96C12.9 6.96 12.3133 7.04667 11.86 7.22C11.42 7.39333 11.0933 7.62 10.88 7.9C10.68 8.18 10.58 8.5 10.58 8.86C10.58 9.28667 10.7267 9.63333 11.02 9.9C11.3267 10.1533 11.72 10.3533 12.2 10.5C12.6933 10.6467 13.24 10.7933 13.84 10.94C14.44 11.0733 15.0333 11.2267 15.62 11.4C16.22 11.5733 16.76 11.8 17.24 12.08C17.7333 12.36 18.1267 12.74 18.42 13.22C18.7267 13.7 18.88 14.3067 18.88 15.04C18.88 15.7867 18.6733 16.48 18.26 17.12C17.86 17.7467 17.24 18.2533 16.4 18.64C15.56 19.0133 14.5 19.2 13.22 19.2ZM25.2381 19.14C24.0648 19.14 23.1581 18.84 22.5181 18.24C21.8781 17.6267 21.5581 16.7267 21.5581 15.54V5.96H24.0581V15.48C24.0581 15.9867 24.1848 16.38 24.4381 16.66C24.7048 16.94 25.0715 17.08 25.5381 17.08C26.0981 17.08 26.5648 16.9333 26.9381 16.64L27.6381 18.42C27.3448 18.66 26.9848 18.84 26.5581 18.96C26.1315 19.08 25.6915 19.14 25.2381 19.14ZM19.7981 10.4V8.4H26.9181V10.4H19.7981ZM36.2747 19V16.84L36.1347 16.38V12.6C36.1347 11.8667 35.9147 11.3 35.4747 10.9C35.0347 10.4867 34.368 10.28 33.4747 10.28C32.8747 10.28 32.2814 10.3733 31.6947 10.56C31.1214 10.7467 30.6347 11.0067 30.2347 11.34L29.2547 9.52C29.828 9.08 30.508 8.75333 31.2947 8.54C32.0947 8.31333 32.9214 8.2 33.7747 8.2C35.3214 8.2 36.5147 8.57333 37.3547 9.32C38.208 10.0533 38.6347 11.1933 38.6347 12.74V19H36.2747ZM32.9147 19.14C32.1147 19.14 31.4147 19.0067 30.8147 18.74C30.2147 18.46 29.748 18.08 29.4147 17.6C29.0947 17.1067 28.9347 16.5533 28.9347 15.94C28.9347 15.34 29.0747 14.8 29.3547 14.32C29.648 13.84 30.1214 13.46 30.7747 13.18C31.428 12.9 32.2947 12.76 33.3747 12.76H36.4747V14.42H33.5547C32.7014 14.42 32.128 14.56 31.8347 14.84C31.5414 15.1067 31.3947 15.44 31.3947 15.84C31.3947 16.2933 31.5747 16.6533 31.9347 16.92C32.2947 17.1867 32.7947 17.32 33.4347 17.32C34.048 17.32 34.5947 17.18 35.0747 16.9C35.568 16.62 35.9214 16.2067 36.1347 15.66L36.5547 17.16C36.3147 17.7867 35.8814 18.2733 35.2547 18.62C34.6414 18.9667 33.8614 19.14 32.9147 19.14ZM47.7631 19.14C46.8565 19.14 46.0498 18.94 45.3431 18.54C44.6365 18.14 44.0765 17.54 43.6631 16.74C43.2631 15.9267 43.0631 14.9 43.0631 13.66C43.0631 12.4067 43.2698 11.38 43.6831 10.58C44.1098 9.78 44.6765 9.18667 45.3831 8.8C46.1031 8.4 46.8965 8.2 47.7631 8.2C48.8165 8.2 49.7431 8.42667 50.5431 8.88C51.3565 9.33333 51.9965 9.96667 52.4631 10.78C52.9431 11.5933 53.1831 12.5533 53.1831 13.66C53.1831 14.7667 52.9431 15.7267 52.4631 16.54C51.9965 17.3533 51.3565 17.9933 50.5431 18.46C49.7431 18.9133 48.8165 19.14 47.7631 19.14ZM41.8431 19V4.16H44.3431V10.8L44.1431 13.64L44.2231 16.48V19H41.8431ZM47.4831 17C48.0831 17 48.6165 16.8667 49.0831 16.6C49.5631 16.3333 49.9431 15.9467 50.2231 15.44C50.5031 14.9333 50.6431 14.34 50.6431 13.66C50.6431 12.9667 50.5031 12.3733 50.2231 11.88C49.9431 11.3733 49.5631 10.9867 49.0831 10.72C48.6165 10.4533 48.0831 10.32 47.4831 10.32C46.8831 10.32 46.3431 10.4533 45.8631 10.72C45.3831 10.9867 45.0031 11.3733 44.7231 11.88C44.4431 12.3733 44.3031 12.9667 44.3031 13.66C44.3031 14.34 44.4431 14.9333 44.7231 15.44C45.0031 15.9467 45.3831 16.3333 45.8631 16.6C46.3431 16.8667 46.8831 17 47.4831 17ZM55.5541 19V4.16H58.0541V19H55.5541ZM66.3553 19.14C65.1686 19.14 64.1286 18.9067 63.2353 18.44C62.3553 17.96 61.6686 17.3067 61.1753 16.48C60.6953 15.6533 60.4553 14.7133 60.4553 13.66C60.4553 12.5933 60.6886 11.6533 61.1553 10.84C61.6353 10.0133 62.2886 9.36667 63.1153 8.9C63.9553 8.43333 64.9086 8.2 65.9753 8.2C67.0153 8.2 67.942 8.42667 68.7553 8.88C69.5686 9.33333 70.2086 9.97333 70.6753 10.8C71.142 11.6267 71.3753 12.6 71.3753 13.72C71.3753 13.8267 71.3686 13.9467 71.3553 14.08C71.3553 14.2133 71.3486 14.34 71.3353 14.46H62.4353V12.8H70.0153L69.0353 13.32C69.0486 12.7067 68.922 12.1667 68.6553 11.7C68.3886 11.2333 68.022 10.8667 67.5553 10.6C67.102 10.3333 66.5753 10.2 65.9753 10.2C65.362 10.2 64.822 10.3333 64.3553 10.6C63.902 10.8667 63.542 11.24 63.2753 11.72C63.022 12.1867 62.8953 12.74 62.8953 13.38V13.78C62.8953 14.42 63.042 14.9867 63.3353 15.48C63.6286 15.9733 64.042 16.3533 64.5753 16.62C65.1086 16.8867 65.722 17.02 66.4153 17.02C67.0153 17.02 67.5553 16.9267 68.0353 16.74C68.5153 16.5533 68.942 16.26 69.3153 15.86L70.6553 17.4C70.1753 17.96 69.5686 18.3933 68.8353 18.7C68.1153 18.9933 67.2886 19.14 66.3553 19.14ZM79.5441 19V5H85.3041C86.5441 5 87.6041 5.2 88.4841 5.6C89.3774 6 90.0641 6.57333 90.5441 7.32C91.0241 8.06667 91.2641 8.95333 91.2641 9.98C91.2641 11.0067 91.0241 11.8933 90.5441 12.64C90.0641 13.3867 89.3774 13.96 88.4841 14.36C87.6041 14.76 86.5441 14.96 85.3041 14.96H80.9841L82.1441 13.74V19H79.5441ZM82.1441 14.02L80.9841 12.76H85.1841C86.3307 12.76 87.1907 12.52 87.7641 12.04C88.3507 11.5467 88.6441 10.86 88.6441 9.98C88.6441 9.08667 88.3507 8.4 87.7641 7.92C87.1907 7.44 86.3307 7.2 85.1841 7.2H80.9841L82.1441 5.92V14.02ZM100.103 19V16.84L99.9628 16.38V12.6C99.9628 11.8667 99.7428 11.3 99.3028 10.9C98.8628 10.4867 98.1961 10.28 97.3028 10.28C96.7028 10.28 96.1095 10.3733 95.5228 10.56C94.9495 10.7467 94.4628 11.0067 94.0628 11.34L93.0828 9.52C93.6561 9.08 94.3361 8.75333 95.1228 8.54C95.9228 8.31333 96.7495 8.2 97.6028 8.2C99.1495 8.2 100.343 8.57333 101.183 9.32C102.036 10.0533 102.463 11.1933 102.463 12.74V19H100.103ZM96.7428 19.14C95.9428 19.14 95.2428 19.0067 94.6428 18.74C94.0428 18.46 93.5761 18.08 93.2428 17.6C92.9228 17.1067 92.7628 16.5533 92.7628 15.94C92.7628 15.34 92.9028 14.8 93.1828 14.32C93.4761 13.84 93.9495 13.46 94.6028 13.18C95.2561 12.9 96.1228 12.76 97.2028 12.76H100.303V14.42H97.3828C96.5295 14.42 95.9561 14.56 95.6628 14.84C95.3695 15.1067 95.2228 15.44 95.2228 15.84C95.2228 16.2933 95.4028 16.6533 95.7628 16.92C96.1228 17.1867 96.6228 17.32 97.2628 17.32C97.8761 17.32 98.4228 17.18 98.9028 16.9C99.3961 16.62 99.7495 16.2067 99.9628 15.66L100.383 17.16C100.143 17.7867 99.7095 18.2733 99.0828 18.62C98.4695 18.9667 97.6895 19.14 96.7428 19.14ZM106.356 23.02C105.836 23.02 105.316 22.9333 104.796 22.76C104.276 22.5867 103.843 22.3467 103.496 22.04L104.496 20.2C104.749 20.4267 105.036 20.6067 105.356 20.74C105.676 20.8733 106.003 20.94 106.336 20.94C106.789 20.94 107.156 20.8267 107.436 20.6C107.716 20.3733 107.976 19.9933 108.216 19.46L108.836 18.06L109.036 17.76L113.076 8.32H115.476L110.476 19.86C110.143 20.66 109.769 21.2933 109.356 21.76C108.956 22.2267 108.503 22.5533 107.996 22.74C107.503 22.9267 106.956 23.02 106.356 23.02ZM108.556 19.38L103.736 8.32H106.336L110.256 17.54L108.556 19.38Z" fill="#252525"/>
<g filter="url(#filter0_d_151_18)">
<rect x="7" y="39.136" width="602.54" height="101.837" fill="#FFDD9E"/>
<rect x="7.84864" y="39.9846" width="600.843" height="100.14" stroke="#252525" stroke-width="1.69729"/>
</g>
<defs>
<filter id="filter0_d_151_18" x="0.210856" y="39.136" width="616.118" height="115.415" filterUnits="userSpaceOnUse" color-interpolation-filters="sRGB">
<feFlood flood-opacity="0" result="BackgroundImageFix"/>
<feColorMatrix in="SourceAlpha" type="matrix" values="0 0 0 0 0 0 0 0 0 0 0 0 0 0 0 0 0 0 127 0" result="hardAlpha"/>
<feOffset dy="6.78914"/>
<feGaussianBlur stdDeviation="3.39457"/>
<feComposite in2="hardAlpha" operator="out"/>
<feColorMatrix type="matrix" values="0 0 0 0 0 0 0 0 0 0 0 0 0 0 0 0 0 0 0.25 0"/>
<feBlend mode="normal" in2="BackgroundImageFix" result="effect1_dropShadow_151_18"/>
<feBlend mode="normal" in="SourceGraphic" in2="effect1_dropShadow_151_18" result="shape"/>
</filter>
</defs>
</svg>
