<svg width="448" height="259" viewBox="0 0 448 259" fill="none" xmlns="http://www.w3.org/2000/svg">
<path d="M18.9078 210.854V198.973H19.9432L28.141 209.292H27.5979V198.973H28.8369V210.854H27.8016L19.6207 200.534H20.1638V210.854H18.9078ZM36.0924 210.939C35.2325 210.939 34.4574 210.746 33.7671 210.362C33.0882 209.966 32.5508 209.428 32.1547 208.749C31.7587 208.059 31.5607 207.273 31.5607 206.39C31.5607 205.496 31.7587 204.71 32.1547 204.031C32.5508 203.352 33.0882 202.82 33.7671 202.435C34.4461 202.051 35.2212 201.858 36.0924 201.858C36.975 201.858 37.7558 202.051 38.4347 202.435C39.1249 202.82 39.6624 203.352 40.0471 204.031C40.4431 204.71 40.6412 205.496 40.6412 206.39C40.6412 207.273 40.4431 208.059 40.0471 208.749C39.6624 209.428 39.1249 209.966 38.4347 210.362C37.7445 210.746 36.9637 210.939 36.0924 210.939ZM36.0924 209.869C36.7374 209.869 37.3088 209.728 37.8067 209.445C38.3046 209.151 38.6949 208.744 38.9778 208.223C39.272 207.691 39.4191 207.08 39.4191 206.39C39.4191 205.688 39.272 205.077 38.9778 204.557C38.6949 204.036 38.3046 203.635 37.8067 203.352C37.3088 203.058 36.7431 202.911 36.1094 202.911C35.4757 202.911 34.91 203.058 34.4121 203.352C33.9142 203.635 33.5182 204.036 33.224 204.557C32.9298 205.077 32.7827 205.688 32.7827 206.39C32.7827 207.08 32.9298 207.691 33.224 208.223C33.5182 208.744 33.9142 209.151 34.4121 209.445C34.91 209.728 35.4701 209.869 36.0924 209.869ZM45.4946 210.939C44.7591 210.939 44.0632 210.837 43.4069 210.633C42.7506 210.418 42.2358 210.152 41.8624 209.836L42.4055 208.885C42.7676 209.157 43.2315 209.394 43.7973 209.598C44.3631 209.79 44.9571 209.886 45.5795 209.886C46.4281 209.886 47.0391 209.756 47.4125 209.496C47.7859 209.224 47.9726 208.868 47.9726 208.427C47.9726 208.099 47.8651 207.844 47.6501 207.663C47.4465 207.471 47.1749 207.329 46.8355 207.239C46.496 207.137 46.1169 207.052 45.6983 206.984C45.2796 206.916 44.8609 206.837 44.4423 206.746C44.0349 206.656 43.6615 206.526 43.3221 206.356C42.9826 206.175 42.7054 205.932 42.4904 205.626C42.2867 205.321 42.1849 204.913 42.1849 204.404C42.1849 203.918 42.3207 203.482 42.5922 203.097C42.8638 202.713 43.2598 202.413 43.7803 202.198C44.3122 201.971 44.9571 201.858 45.7152 201.858C46.2923 201.858 46.8694 201.937 47.4465 202.096C48.0236 202.243 48.4988 202.441 48.8722 202.69L48.346 203.657C47.95 203.386 47.5257 203.193 47.0731 203.08C46.6205 202.956 46.1679 202.894 45.7152 202.894C44.9119 202.894 44.3178 203.035 43.9331 203.318C43.5597 203.589 43.373 203.94 43.373 204.37C43.373 204.71 43.4748 204.976 43.6785 205.168C43.8935 205.36 44.1707 205.513 44.5102 205.626C44.8609 205.728 45.24 205.813 45.6474 205.881C46.066 205.949 46.479 206.034 46.8864 206.135C47.305 206.226 47.6841 206.356 48.0236 206.526C48.3743 206.684 48.6515 206.916 48.8552 207.222C49.0702 207.516 49.1777 207.906 49.1777 208.393C49.1777 208.913 49.0306 209.366 48.7364 209.751C48.4535 210.124 48.0349 210.418 47.4804 210.633C46.9373 210.837 46.2753 210.939 45.4946 210.939ZM54.2064 210.939C53.3691 210.939 52.7241 210.712 52.2715 210.26C51.8189 209.807 51.5926 209.168 51.5926 208.342V199.974H52.7977V208.274C52.7977 208.795 52.9278 209.196 53.1881 209.479C53.4596 209.762 53.8444 209.903 54.3422 209.903C54.874 209.903 55.3153 209.751 55.6661 209.445L56.0904 210.311C55.8528 210.526 55.5643 210.684 55.2248 210.786C54.8967 210.888 54.5572 210.939 54.2064 210.939ZM49.9972 202.945V201.943H55.5134V202.945H49.9972ZM58.2842 210.854V201.943H59.4383V204.37L59.3195 203.946C59.5685 203.267 59.9871 202.752 60.5755 202.401C61.1639 202.039 61.8937 201.858 62.765 201.858V203.029C62.7197 203.029 62.6745 203.029 62.6292 203.029C62.584 203.018 62.5387 203.012 62.4934 203.012C61.5543 203.012 60.8188 203.301 60.287 203.878C59.7552 204.444 59.4892 205.253 59.4892 206.305V210.854H58.2842ZM68.5132 210.939C67.6533 210.939 66.8782 210.746 66.188 210.362C65.509 209.966 64.9716 209.428 64.5755 208.749C64.1795 208.059 63.9815 207.273 63.9815 206.39C63.9815 205.496 64.1795 204.71 64.5755 204.031C64.9716 203.352 65.509 202.82 66.188 202.435C66.8669 202.051 67.642 201.858 68.5132 201.858C69.3958 201.858 70.1766 202.051 70.8555 202.435C71.5457 202.82 72.0832 203.352 72.4679 204.031C72.8639 204.71 73.062 205.496 73.062 206.39C73.062 207.273 72.8639 208.059 72.4679 208.749C72.0832 209.428 71.5457 209.966 70.8555 210.362C70.1653 210.746 69.3845 210.939 68.5132 210.939ZM68.5132 209.869C69.1582 209.869 69.7296 209.728 70.2275 209.445C70.7254 209.151 71.1157 208.744 71.3986 208.223C71.6928 207.691 71.8399 207.08 71.8399 206.39C71.8399 205.688 71.6928 205.077 71.3986 204.557C71.1157 204.036 70.7254 203.635 70.2275 203.352C69.7296 203.058 69.1639 202.911 68.5302 202.911C67.8966 202.911 67.3308 203.058 66.8329 203.352C66.3351 203.635 65.939 204.036 65.6448 204.557C65.3506 205.077 65.2035 205.688 65.2035 206.39C65.2035 207.08 65.3506 207.691 65.6448 208.223C65.939 208.744 66.3351 209.151 66.8329 209.445C67.3308 209.728 67.8909 209.869 68.5132 209.869ZM73.4176 212.551L79.0186 196.563H80.1219L74.5208 212.551H73.4176ZM82.985 210.854L79.0303 201.943H80.2863L83.9185 210.209H83.3244L87.0076 201.943H88.1957L84.224 210.854H82.985ZM93.2764 210.939C92.4164 210.939 91.6413 210.746 90.9511 210.362C90.2722 209.966 89.7347 209.428 89.3387 208.749C88.9426 208.059 88.7446 207.273 88.7446 206.39C88.7446 205.496 88.9426 204.71 89.3387 204.031C89.7347 203.352 90.2722 202.82 90.9511 202.435C91.63 202.051 92.4051 201.858 93.2764 201.858C94.159 201.858 94.9397 202.051 95.6186 202.435C96.3089 202.82 96.8463 203.352 97.231 204.031C97.6271 204.71 97.8251 205.496 97.8251 206.39C97.8251 207.273 97.6271 208.059 97.231 208.749C96.8463 209.428 96.3089 209.966 95.6186 210.362C94.9284 210.746 94.1476 210.939 93.2764 210.939ZM93.2764 209.869C93.9213 209.869 94.4928 209.728 94.9906 209.445C95.4885 209.151 95.8789 208.744 96.1618 208.223C96.456 207.691 96.6031 207.08 96.6031 206.39C96.6031 205.688 96.456 205.077 96.1618 204.557C95.8789 204.036 95.4885 203.635 94.9906 203.352C94.4928 203.058 93.927 202.911 93.2933 202.911C92.6597 202.911 92.0939 203.058 91.5961 203.352C91.0982 203.635 90.7022 204.036 90.408 204.557C90.1138 205.077 89.9667 205.688 89.9667 206.39C89.9667 207.08 90.1138 207.691 90.408 208.223C90.7022 208.744 91.0982 209.151 91.5961 209.445C92.0939 209.728 92.654 209.869 93.2764 209.869ZM102.679 210.939C101.943 210.939 101.247 210.837 100.591 210.633C99.9346 210.418 99.4198 210.152 99.0464 209.836L99.5895 208.885C99.9516 209.157 100.415 209.394 100.981 209.598C101.547 209.79 102.141 209.886 102.763 209.886C103.612 209.886 104.223 209.756 104.596 209.496C104.97 209.224 105.157 208.868 105.157 208.427C105.157 208.099 105.049 207.844 104.834 207.663C104.63 207.471 104.359 207.329 104.019 207.239C103.68 207.137 103.301 207.052 102.882 206.984C102.464 206.916 102.045 206.837 101.626 206.746C101.219 206.656 100.845 206.526 100.506 206.356C100.167 206.175 99.8893 205.932 99.6743 205.626C99.4707 205.321 99.3688 204.913 99.3688 204.404C99.3688 203.918 99.5046 203.482 99.7762 203.097C100.048 202.713 100.444 202.413 100.964 202.198C101.496 201.971 102.141 201.858 102.899 201.858C103.476 201.858 104.053 201.937 104.63 202.096C105.207 202.243 105.683 202.441 106.056 202.69L105.53 203.657C105.134 203.386 104.71 203.193 104.257 203.08C103.804 202.956 103.352 202.894 102.899 202.894C102.096 202.894 101.502 203.035 101.117 203.318C100.744 203.589 100.557 203.94 100.557 204.37C100.557 204.71 100.659 204.976 100.862 205.168C101.077 205.36 101.355 205.513 101.694 205.626C102.045 205.728 102.424 205.813 102.831 205.881C103.25 205.949 103.663 206.034 104.07 206.135C104.489 206.226 104.868 206.356 105.207 206.526C105.558 206.684 105.835 206.916 106.039 207.222C106.254 207.516 106.362 207.906 106.362 208.393C106.362 208.913 106.215 209.366 105.92 209.751C105.637 210.124 105.219 210.418 104.664 210.633C104.121 210.837 103.459 210.939 102.679 210.939ZM111.39 210.939C110.553 210.939 109.908 210.712 109.455 210.26C109.003 209.807 108.777 209.168 108.777 208.342V199.974H109.982V208.274C109.982 208.795 110.112 209.196 110.372 209.479C110.644 209.762 111.028 209.903 111.526 209.903C112.058 209.903 112.499 209.751 112.85 209.445L113.274 210.311C113.037 210.526 112.748 210.684 112.409 210.786C112.081 210.888 111.741 210.939 111.39 210.939ZM107.181 202.945V201.943H112.697V202.945H107.181ZM115.468 210.854V201.943H116.622V204.37L116.503 203.946C116.752 203.267 117.171 202.752 117.759 202.401C118.348 202.039 119.078 201.858 119.949 201.858V203.029C119.904 203.029 119.858 203.029 119.813 203.029C119.768 203.018 119.723 203.012 119.677 203.012C118.738 203.012 118.003 203.301 117.471 203.878C116.939 204.444 116.673 205.253 116.673 206.305V210.854H115.468ZM125.697 210.939C124.837 210.939 124.062 210.746 123.372 210.362C122.693 209.966 122.156 209.428 121.759 208.749C121.363 208.059 121.165 207.273 121.165 206.39C121.165 205.496 121.363 204.71 121.759 204.031C122.156 203.352 122.693 202.82 123.372 202.435C124.051 202.051 124.826 201.858 125.697 201.858C126.58 201.858 127.361 202.051 128.039 202.435C128.73 202.82 129.267 203.352 129.652 204.031C130.048 204.71 130.246 205.496 130.246 206.39C130.246 207.273 130.048 208.059 129.652 208.749C129.267 209.428 128.73 209.966 128.039 210.362C127.349 210.746 126.568 210.939 125.697 210.939ZM125.697 209.869C126.342 209.869 126.914 209.728 127.411 209.445C127.909 209.151 128.3 208.744 128.583 208.223C128.877 207.691 129.024 207.08 129.024 206.39C129.024 205.688 128.877 205.077 128.583 204.557C128.3 204.036 127.909 203.635 127.411 203.352C126.914 203.058 126.348 202.911 125.714 202.911C125.081 202.911 124.515 203.058 124.017 203.352C123.519 203.635 123.123 204.036 122.829 204.557C122.535 205.077 122.387 205.688 122.387 206.39C122.387 207.08 122.535 207.691 122.829 208.223C123.123 208.744 123.519 209.151 124.017 209.445C124.515 209.728 125.075 209.869 125.697 209.869Z" fill="#252525"/>
<path d="M152.312 251.503C153.217 251.748 154.149 251.213 154.394 250.308L158.386 235.563C158.631 234.658 158.096 233.726 157.191 233.481C156.287 233.236 155.354 233.771 155.109 234.676L151.561 247.782L138.455 244.234C137.55 243.989 136.618 244.524 136.373 245.429C136.128 246.334 136.663 247.266 137.568 247.511L152.312 251.503ZM154.228 249.02C149.837 241.368 142.689 236.976 134.657 234.292C126.652 231.617 117.597 230.583 109.197 229.753C100.686 228.913 92.9571 228.286 87.2107 226.51C84.3608 225.629 82.1588 224.509 80.6372 223.066C79.1595 221.663 78.2499 219.889 78.0705 217.489L74.6854 217.742C74.9272 220.977 76.2063 223.541 78.3006 225.528C80.3509 227.473 83.104 228.794 86.2083 229.754C92.3703 231.658 100.547 232.31 108.863 233.131C117.29 233.964 125.986 234.974 133.581 237.512C141.148 240.04 147.45 244.028 151.284 250.709L154.228 249.02Z" fill="#252525"/>
<path d="M128.12 137.662H134.4V138.748H128.12V137.662ZM128.256 143.789H127V131.908H135.147V132.994H128.256V143.789ZM135.796 143.789L140.667 137.204V138.171L136.084 131.908H137.527L141.38 137.136L140.819 137.153L144.672 131.908H146.03L141.498 138.086V137.204L146.353 143.789H144.893L140.786 138.205H141.312L137.238 143.789H135.796ZM153.022 143.789V131.908H154.058L159.489 141.175H158.946L164.326 131.908H165.362V143.789H164.157V133.792H164.445L159.489 142.279H158.895L153.905 133.792H154.228V143.789H153.022ZM174.562 143.789V141.82L174.511 141.498V138.205C174.511 137.447 174.296 136.864 173.866 136.457C173.448 136.049 172.82 135.846 171.982 135.846C171.405 135.846 170.857 135.942 170.336 136.134C169.816 136.327 169.374 136.581 169.012 136.898L168.469 135.999C168.922 135.614 169.465 135.32 170.098 135.116C170.732 134.901 171.4 134.794 172.101 134.794C173.255 134.794 174.144 135.082 174.766 135.659C175.4 136.225 175.716 137.091 175.716 138.256V143.789H174.562ZM171.49 143.874C170.823 143.874 170.24 143.766 169.742 143.552C169.255 143.325 168.882 143.02 168.622 142.635C168.362 142.239 168.231 141.786 168.231 141.277C168.231 140.813 168.339 140.395 168.554 140.021C168.78 139.636 169.142 139.331 169.64 139.105C170.149 138.867 170.828 138.748 171.677 138.748H174.749V139.648H171.711C170.851 139.648 170.251 139.801 169.912 140.106C169.584 140.412 169.42 140.791 169.42 141.243C169.42 141.752 169.618 142.16 170.014 142.465C170.41 142.771 170.964 142.924 171.677 142.924C172.356 142.924 172.939 142.771 173.425 142.465C173.923 142.148 174.285 141.696 174.511 141.107L174.783 141.939C174.557 142.527 174.161 142.997 173.595 143.348C173.04 143.699 172.339 143.874 171.49 143.874ZM178.99 143.789V134.878H180.144V137.305L180.025 136.881C180.274 136.202 180.693 135.687 181.281 135.337C181.869 134.975 182.599 134.794 183.47 134.794V135.965C183.425 135.965 183.38 135.965 183.335 135.965C183.289 135.953 183.244 135.948 183.199 135.948C182.26 135.948 181.524 136.236 180.992 136.813C180.461 137.379 180.195 138.188 180.195 139.24V143.789H178.99ZM189.388 147.167C188.574 147.167 187.793 147.048 187.046 146.81C186.299 146.573 185.694 146.233 185.23 145.792L185.841 144.875C186.26 145.249 186.775 145.543 187.386 145.758C188.008 145.984 188.664 146.097 189.354 146.097C190.486 146.097 191.318 145.832 191.849 145.3C192.381 144.779 192.647 143.965 192.647 142.856V140.632L192.817 139.105L192.698 137.577V134.878H193.852V142.703C193.852 144.242 193.473 145.368 192.715 146.08C191.968 146.805 190.859 147.167 189.388 147.167ZM189.168 143.45C188.319 143.45 187.555 143.269 186.876 142.907C186.197 142.533 185.66 142.018 185.264 141.362C184.879 140.706 184.687 139.953 184.687 139.105C184.687 138.256 184.879 137.509 185.264 136.864C185.66 136.208 186.197 135.699 186.876 135.337C187.555 134.975 188.319 134.794 189.168 134.794C189.96 134.794 190.673 134.958 191.306 135.286C191.94 135.614 192.443 136.1 192.817 136.745C193.19 137.39 193.377 138.177 193.377 139.105C193.377 140.032 193.19 140.819 192.817 141.464C192.443 142.109 191.94 142.601 191.306 142.94C190.673 143.28 189.96 143.45 189.168 143.45ZM189.287 142.38C189.943 142.38 190.526 142.245 191.035 141.973C191.544 141.69 191.946 141.305 192.24 140.819C192.534 140.321 192.681 139.75 192.681 139.105C192.681 138.46 192.534 137.894 192.24 137.407C191.946 136.921 191.544 136.542 191.035 136.27C190.526 135.987 189.943 135.846 189.287 135.846C188.642 135.846 188.059 135.987 187.538 136.27C187.029 136.542 186.627 136.921 186.333 137.407C186.05 137.894 185.909 138.46 185.909 139.105C185.909 139.75 186.05 140.321 186.333 140.819C186.627 141.305 187.029 141.69 187.538 141.973C188.059 142.245 188.642 142.38 189.287 142.38ZM197.206 143.789V134.878H198.411V143.789H197.206ZM197.817 132.91C197.568 132.91 197.358 132.825 197.189 132.655C197.019 132.485 196.934 132.282 196.934 132.044C196.934 131.806 197.019 131.608 197.189 131.45C197.358 131.28 197.568 131.195 197.817 131.195C198.066 131.195 198.275 131.274 198.445 131.433C198.614 131.591 198.699 131.789 198.699 132.027C198.699 132.276 198.614 132.485 198.445 132.655C198.286 132.825 198.077 132.91 197.817 132.91ZM206.312 134.794C207.037 134.794 207.67 134.935 208.213 135.218C208.768 135.489 209.198 135.908 209.503 136.474C209.82 137.04 209.979 137.752 209.979 138.612V143.789H208.774V138.731C208.774 137.792 208.536 137.085 208.061 136.61C207.597 136.123 206.94 135.88 206.092 135.88C205.458 135.88 204.904 136.01 204.428 136.27C203.965 136.519 203.602 136.887 203.342 137.373C203.093 137.849 202.969 138.426 202.969 139.105V143.789H201.764V134.878H202.918V137.322L202.731 136.864C203.014 136.219 203.467 135.716 204.089 135.354C204.711 134.98 205.452 134.794 206.312 134.794ZM215.627 143.874C214.891 143.874 214.195 143.772 213.539 143.568C212.883 143.353 212.368 143.088 211.995 142.771L212.538 141.82C212.9 142.092 213.364 142.329 213.93 142.533C214.495 142.725 215.089 142.822 215.712 142.822C216.56 142.822 217.171 142.692 217.545 142.431C217.918 142.16 218.105 141.803 218.105 141.362C218.105 141.034 217.997 140.779 217.782 140.598C217.579 140.406 217.307 140.264 216.968 140.174C216.628 140.072 216.249 139.987 215.831 139.919C215.412 139.851 214.993 139.772 214.575 139.682C214.167 139.591 213.794 139.461 213.454 139.291C213.115 139.11 212.838 138.867 212.623 138.561C212.419 138.256 212.317 137.849 212.317 137.339C212.317 136.853 212.453 136.417 212.724 136.033C212.996 135.648 213.392 135.348 213.913 135.133C214.444 134.907 215.089 134.794 215.847 134.794C216.425 134.794 217.002 134.873 217.579 135.031C218.156 135.178 218.631 135.376 219.004 135.625L218.478 136.593C218.082 136.321 217.658 136.129 217.205 136.016C216.753 135.891 216.3 135.829 215.847 135.829C215.044 135.829 214.45 135.97 214.065 136.253C213.692 136.525 213.505 136.876 213.505 137.305C213.505 137.645 213.607 137.911 213.811 138.103C214.026 138.296 214.303 138.448 214.642 138.561C214.993 138.663 215.372 138.748 215.78 138.816C216.198 138.884 216.611 138.969 217.019 139.071C217.437 139.161 217.816 139.291 218.156 139.461C218.507 139.619 218.784 139.851 218.987 140.157C219.202 140.451 219.31 140.842 219.31 141.328C219.31 141.849 219.163 142.301 218.869 142.686C218.586 143.059 218.167 143.353 217.613 143.568C217.07 143.772 216.408 143.874 215.627 143.874Z" fill="#252525"/>
<path d="M174.98 253.757C175.736 254.311 176.798 254.148 177.353 253.392L186.386 241.074C186.94 240.318 186.777 239.255 186.021 238.701C185.265 238.147 184.203 238.31 183.649 239.066L175.619 250.016L164.669 241.986C163.913 241.432 162.851 241.595 162.297 242.351C161.743 243.107 161.906 244.169 162.662 244.724L174.98 253.757ZM167.497 197.226L165.807 197.386L165.812 197.435L165.819 197.485L167.497 197.226ZM177.662 252.13L169.174 196.968L165.819 197.485L174.307 252.646L177.662 252.13ZM169.187 197.067L164.942 152.089L161.563 152.408L165.807 197.386L169.187 197.067Z" fill="#252525"/>
<path d="M203.854 252.805C204.511 253.473 205.586 253.483 206.254 252.825L217.149 242.118C217.817 241.461 217.827 240.386 217.17 239.717C216.512 239.049 215.438 239.04 214.769 239.697L205.085 249.215L195.567 239.531C194.91 238.862 193.836 238.853 193.167 239.51C192.499 240.167 192.489 241.242 193.146 241.91L203.854 252.805ZM206.762 251.63C206.875 238.478 211.911 223.372 219.279 207.931C226.632 192.519 236.225 176.942 245.292 162.876C254.324 148.865 262.894 136.267 268.063 126.99C270.632 122.38 272.48 118.386 273.065 115.346C273.357 113.829 273.386 112.301 272.797 111.005C272.155 109.592 270.926 108.761 269.397 108.443L268.704 111.766C269.386 111.908 269.595 112.164 269.707 112.409C269.871 112.771 269.969 113.473 269.732 114.705C269.259 117.16 267.662 120.736 265.097 125.338C260 134.488 251.556 146.893 242.439 161.037C233.357 175.125 223.666 190.852 216.215 206.469C208.778 222.056 203.487 237.702 203.367 251.6L206.762 251.63Z" fill="#252525"/>
<path d="M350.406 17.8458V7.05109H346.231V5.96482H355.837V7.05109H351.662V17.8458H350.406ZM357.357 17.8458V8.93507H358.511V11.3622L358.392 10.9379C358.641 10.259 359.06 9.74411 359.648 9.39334C360.237 9.03125 360.967 8.85021 361.838 8.85021V10.0213C361.793 10.0213 361.747 10.0213 361.702 10.0213C361.657 10.01 361.612 10.0044 361.566 10.0044C360.627 10.0044 359.892 10.2929 359.36 10.87C358.828 11.4357 358.562 12.2448 358.562 13.2971V17.8458H357.357ZM368.958 17.8458V15.877L368.907 15.5545V12.2618C368.907 11.5036 368.692 10.9209 368.262 10.5136C367.843 10.1062 367.215 9.90253 366.378 9.90253C365.801 9.90253 365.252 9.99871 364.732 10.1911C364.211 10.3834 363.77 10.638 363.408 10.9548L362.865 10.0553C363.317 9.67056 363.86 9.37637 364.494 9.17269C365.128 8.9577 365.795 8.85021 366.497 8.85021C367.651 8.85021 368.539 9.13875 369.162 9.71583C369.795 10.2816 370.112 11.1472 370.112 12.3127V17.8458H368.958ZM365.886 17.9307C365.218 17.9307 364.636 17.8232 364.138 17.6082C363.651 17.3819 363.278 17.0764 363.017 16.6917C362.757 16.2956 362.627 15.843 362.627 15.3338C362.627 14.8699 362.735 14.4513 362.95 14.0779C363.176 13.6931 363.538 13.3876 364.036 13.1613C364.545 12.9237 365.224 12.8049 366.073 12.8049H369.145V13.7044H366.106C365.247 13.7044 364.647 13.8572 364.307 14.1627C363.979 14.4682 363.815 14.8473 363.815 15.2999C363.815 15.8091 364.013 16.2164 364.409 16.5219C364.805 16.8275 365.36 16.9802 366.073 16.9802C366.751 16.9802 367.334 16.8275 367.821 16.5219C368.319 16.2051 368.681 15.7525 368.907 15.1641L369.179 15.9958C368.952 16.5842 368.556 17.0538 367.99 17.4045C367.436 17.7553 366.734 17.9307 365.886 17.9307ZM377.934 8.85021C378.658 8.85021 379.292 8.99165 379.835 9.27453C380.389 9.5461 380.819 9.96476 381.125 10.5305C381.442 11.0963 381.6 11.8091 381.6 12.6691V17.8458H380.395V12.7879C380.395 11.8487 380.157 11.1415 379.682 10.6663C379.218 10.1798 378.562 9.93647 377.713 9.93647C377.08 9.93647 376.525 10.0666 376.05 10.3268C375.586 10.5758 375.224 10.9435 374.964 11.4301C374.715 11.9053 374.59 12.4824 374.59 13.1613V17.8458H373.385V8.93507H374.539V11.3792L374.353 10.9209C374.636 10.2759 375.088 9.7724 375.71 9.41031C376.333 9.03691 377.074 8.85021 377.934 8.85021ZM387.248 17.9307C386.513 17.9307 385.817 17.8289 385.161 17.6252C384.504 17.4102 383.99 17.1443 383.616 16.8275L384.159 15.877C384.521 16.1485 384.985 16.3862 385.551 16.5898C386.117 16.7822 386.711 16.8784 387.333 16.8784C388.182 16.8784 388.793 16.7482 389.166 16.488C389.54 16.2164 389.726 15.86 389.726 15.4187C389.726 15.0906 389.619 14.836 389.404 14.6549C389.2 14.4626 388.929 14.3211 388.589 14.2306C388.25 14.1288 387.871 14.0439 387.452 13.976C387.033 13.9081 386.615 13.8289 386.196 13.7384C385.789 13.6479 385.415 13.5177 385.076 13.348C384.736 13.167 384.459 12.9237 384.244 12.6182C384.04 12.3127 383.939 11.9053 383.939 11.3961C383.939 10.9096 384.074 10.4739 384.346 10.0892C384.618 9.70451 385.014 9.40466 385.534 9.18967C386.066 8.96336 386.711 8.85021 387.469 8.85021C388.046 8.85021 388.623 8.92942 389.2 9.08783C389.777 9.23493 390.253 9.43294 390.626 9.68188L390.1 10.6493C389.704 10.3778 389.279 10.1854 388.827 10.0723C388.374 9.94779 387.922 9.88555 387.469 9.88555C386.666 9.88555 386.072 10.027 385.687 10.3099C385.313 10.5814 385.127 10.9322 385.127 11.3622C385.127 11.7016 385.229 11.9676 385.432 12.1599C385.647 12.3523 385.924 12.505 386.264 12.6182C386.615 12.72 386.994 12.8049 387.401 12.8728C387.82 12.9407 388.233 13.0255 388.64 13.1274C389.059 13.2179 389.438 13.348 389.777 13.5177C390.128 13.6762 390.405 13.9081 390.609 14.2136C390.824 14.5078 390.931 14.8982 390.931 15.3848C390.931 15.9053 390.784 16.3579 390.49 16.7426C390.207 17.116 389.789 17.4102 389.234 17.6252C388.691 17.8289 388.029 17.9307 387.248 17.9307ZM398.727 17.8458V15.877L398.676 15.5545V12.2618C398.676 11.5036 398.461 10.9209 398.031 10.5136C397.612 10.1062 396.984 9.90253 396.147 9.90253C395.57 9.90253 395.021 9.99871 394.5 10.1911C393.98 10.3834 393.539 10.638 393.177 10.9548L392.633 10.0553C393.086 9.67056 393.629 9.37637 394.263 9.17269C394.897 8.9577 395.564 8.85021 396.266 8.85021C397.42 8.85021 398.308 9.13875 398.93 9.71583C399.564 10.2816 399.881 11.1472 399.881 12.3127V17.8458H398.727ZM395.655 17.9307C394.987 17.9307 394.404 17.8232 393.906 17.6082C393.42 17.3819 393.046 17.0764 392.786 16.6917C392.526 16.2956 392.396 15.843 392.396 15.3338C392.396 14.8699 392.503 14.4513 392.718 14.0779C392.945 13.6931 393.307 13.3876 393.805 13.1613C394.314 12.9237 394.993 12.8049 395.841 12.8049H398.913V13.7044H395.875C395.015 13.7044 394.416 13.8572 394.076 14.1627C393.748 14.4682 393.584 14.8473 393.584 15.2999C393.584 15.8091 393.782 16.2164 394.178 16.5219C394.574 16.8275 395.128 16.9802 395.841 16.9802C396.52 16.9802 397.103 16.8275 397.59 16.5219C398.087 16.2051 398.45 15.7525 398.676 15.1641L398.947 15.9958C398.721 16.5842 398.325 17.0538 397.759 17.4045C397.205 17.7553 396.503 17.9307 395.655 17.9307ZM406.854 17.9307C405.971 17.9307 405.179 17.7383 404.478 17.3536C403.788 16.9576 403.245 16.4201 402.848 15.7412C402.452 15.051 402.254 14.2646 402.254 13.382C402.254 12.4881 402.452 11.7017 402.848 11.0227C403.245 10.3438 403.788 9.81201 404.478 9.42729C405.179 9.04257 405.971 8.85021 406.854 8.85021C407.612 8.85021 408.297 8.99731 408.908 9.2915C409.519 9.5857 410 10.027 410.35 10.6154L409.451 11.2264C409.145 10.7738 408.766 10.44 408.314 10.225C407.861 10.01 407.369 9.90253 406.837 9.90253C406.203 9.90253 405.632 10.0496 405.123 10.3438C404.614 10.6267 404.212 11.0284 403.918 11.5489C403.624 12.0694 403.476 12.6804 403.476 13.382C403.476 14.0835 403.624 14.6945 403.918 15.215C404.212 15.7355 404.614 16.1429 405.123 16.4371C405.632 16.72 406.203 16.8614 406.837 16.8614C407.369 16.8614 407.861 16.7539 408.314 16.5389C408.766 16.3239 409.145 15.9958 409.451 15.5545L410.35 16.1655C410 16.7426 409.519 17.1839 408.908 17.4894C408.297 17.7836 407.612 17.9307 406.854 17.9307ZM415.635 17.9307C414.797 17.9307 414.152 17.7044 413.7 17.2518C413.247 16.7992 413.021 16.1599 413.021 15.3338V6.96622H414.226V15.266C414.226 15.7865 414.356 16.1881 414.616 16.471C414.888 16.7539 415.273 16.8953 415.771 16.8953C416.302 16.8953 416.744 16.7426 417.094 16.4371L417.519 17.3027C417.281 17.5177 416.993 17.6761 416.653 17.7779C416.325 17.8798 415.986 17.9307 415.635 17.9307ZM411.425 9.93647V8.93507H416.942V9.93647H411.425ZM419.712 17.8458V8.93507H420.918V17.8458H419.712ZM420.324 6.96622C420.075 6.96622 419.865 6.88136 419.696 6.71163C419.526 6.5419 419.441 6.33823 419.441 6.10061C419.441 5.86299 419.526 5.66497 419.696 5.50656C419.865 5.33683 420.075 5.25196 420.324 5.25196C420.572 5.25196 420.782 5.33117 420.951 5.48958C421.121 5.648 421.206 5.84601 421.206 6.08363C421.206 6.33257 421.121 6.5419 420.951 6.71163C420.793 6.88136 420.584 6.96622 420.324 6.96622ZM427.903 17.9307C427.043 17.9307 426.268 17.7383 425.578 17.3536C424.899 16.9576 424.361 16.4201 423.965 15.7412C423.569 15.051 423.371 14.2646 423.371 13.382C423.371 12.4881 423.569 11.7017 423.965 11.0227C424.361 10.3438 424.899 9.81201 425.578 9.42729C426.256 9.04257 427.032 8.85021 427.903 8.85021C428.785 8.85021 429.566 9.04257 430.245 9.42729C430.935 9.81201 431.473 10.3438 431.857 11.0227C432.254 11.7017 432.452 12.4881 432.452 13.382C432.452 14.2646 432.254 15.051 431.857 15.7412C431.473 16.4201 430.935 16.9576 430.245 17.3536C429.555 17.7383 428.774 17.9307 427.903 17.9307ZM427.903 16.8614C428.548 16.8614 429.119 16.72 429.617 16.4371C430.115 16.1429 430.505 15.7355 430.788 15.215C431.082 14.6832 431.229 14.0722 431.229 13.382C431.229 12.6804 431.082 12.0694 430.788 11.5489C430.505 11.0284 430.115 10.6267 429.617 10.3438C429.119 10.0496 428.553 9.90253 427.92 9.90253C427.286 9.90253 426.72 10.0496 426.223 10.3438C425.725 10.6267 425.329 11.0284 425.034 11.5489C424.74 12.0694 424.593 12.6804 424.593 13.382C424.593 14.0722 424.74 14.6832 425.034 15.215C425.329 15.7355 425.725 16.1429 426.223 16.4371C426.72 16.72 427.28 16.8614 427.903 16.8614ZM439.461 8.85021C440.185 8.85021 440.818 8.99165 441.361 9.27453C441.916 9.5461 442.346 9.96476 442.651 10.5305C442.968 11.0963 443.127 11.8091 443.127 12.6691V17.8458H441.922V12.7879C441.922 11.8487 441.684 11.1415 441.209 10.6663C440.745 10.1798 440.089 9.93647 439.24 9.93647C438.606 9.93647 438.052 10.0666 437.577 10.3268C437.113 10.5758 436.751 10.9435 436.49 11.4301C436.241 11.9053 436.117 12.4824 436.117 13.1613V17.8458H434.912V8.93507H436.066V11.3792L435.879 10.9209C436.162 10.2759 436.615 9.7724 437.237 9.41031C437.859 9.03691 438.601 8.85021 439.461 8.85021ZM348.047 38.8458V28.8149C348.047 28.0228 348.279 27.3835 348.743 26.8969C349.207 26.4104 349.874 26.1671 350.745 26.1671C351.085 26.1671 351.413 26.2124 351.73 26.3029C352.047 26.3934 352.313 26.5348 352.528 26.7272L352.12 27.6268C351.95 27.4797 351.752 27.3722 351.526 27.3043C351.3 27.2251 351.057 27.1855 350.796 27.1855C350.287 27.1855 349.897 27.3269 349.625 27.6098C349.354 27.8927 349.218 28.3113 349.218 28.8658V30.2236L349.252 30.7837V38.8458H348.047ZM346.451 30.9365V29.9351H351.967V30.9365H346.451ZM357.23 38.9307C356.303 38.9307 355.488 38.7383 354.786 38.3536C354.085 37.9576 353.536 37.4201 353.14 36.7412C352.744 36.051 352.546 35.2646 352.546 34.382C352.546 33.4994 352.733 32.7186 353.106 32.0397C353.491 31.3608 354.011 30.829 354.667 30.4443C355.335 30.0482 356.082 29.8502 356.908 29.8502C357.745 29.8502 358.486 30.0426 359.131 30.4273C359.788 30.8007 360.302 31.3325 360.676 32.0227C361.049 32.7017 361.236 33.4881 361.236 34.382C361.236 34.4385 361.23 34.5008 361.219 34.5687C361.219 34.6252 361.219 34.6875 361.219 34.7554H353.462V33.8558H360.574L360.099 34.2122C360.099 33.5673 359.957 32.9958 359.674 32.498C359.403 31.9888 359.029 31.5928 358.554 31.3099C358.079 31.027 357.53 30.8856 356.908 30.8856C356.297 30.8856 355.748 31.027 355.261 31.3099C354.775 31.5928 354.396 31.9888 354.124 32.498C353.853 33.0072 353.717 33.5899 353.717 34.2462V34.4329C353.717 35.1118 353.864 35.7115 354.158 36.232C354.464 36.7412 354.882 37.1429 355.414 37.4371C355.957 37.72 356.574 37.8614 357.264 37.8614C357.807 37.8614 358.311 37.7652 358.775 37.5729C359.25 37.3805 359.657 37.0863 359.997 36.6903L360.676 37.471C360.28 37.9463 359.782 38.3084 359.182 38.5573C358.594 38.8062 357.943 38.9307 357.23 38.9307ZM367.474 38.9307C366.546 38.9307 365.731 38.7383 365.03 38.3536C364.328 37.9576 363.779 37.4201 363.383 36.7412C362.987 36.051 362.789 35.2646 362.789 34.382C362.789 33.4994 362.976 32.7186 363.349 32.0397C363.734 31.3608 364.255 30.829 364.911 30.4443C365.578 30.0482 366.325 29.8502 367.151 29.8502C367.989 29.8502 368.73 30.0426 369.375 30.4273C370.031 30.8007 370.546 31.3325 370.919 32.0227C371.293 32.7017 371.479 33.4881 371.479 34.382C371.479 34.4385 371.474 34.5008 371.462 34.5687C371.462 34.6252 371.462 34.6875 371.462 34.7554H363.706V33.8558H370.817L370.342 34.2122C370.342 33.5673 370.201 32.9958 369.918 32.498C369.646 31.9888 369.273 31.5928 368.798 31.3099C368.322 31.027 367.774 30.8856 367.151 30.8856C366.54 30.8856 365.991 31.027 365.505 31.3099C365.018 31.5928 364.639 31.9888 364.368 32.498C364.096 33.0072 363.96 33.5899 363.96 34.2462V34.4329C363.96 35.1118 364.107 35.7115 364.402 36.232C364.707 36.7412 365.126 37.1429 365.658 37.4371C366.201 37.72 366.817 37.8614 367.508 37.8614C368.051 37.8614 368.554 37.7652 369.018 37.5729C369.494 37.3805 369.901 37.0863 370.24 36.6903L370.919 37.471C370.523 37.9463 370.025 38.3084 369.426 38.5573C368.837 38.8062 368.187 38.9307 367.474 38.9307ZM376.325 38.9307C375.59 38.9307 374.894 38.8289 374.238 38.6252C373.581 38.4102 373.067 38.1443 372.693 37.8275L373.236 36.877C373.598 37.1485 374.062 37.3862 374.628 37.5898C375.194 37.7822 375.788 37.8784 376.41 37.8784C377.259 37.8784 377.87 37.7482 378.243 37.488C378.617 37.2164 378.803 36.86 378.803 36.4187C378.803 36.0906 378.696 35.836 378.481 35.6549C378.277 35.4626 378.006 35.3211 377.666 35.2306C377.327 35.1288 376.948 35.0439 376.529 34.976C376.11 34.9081 375.692 34.8289 375.273 34.7384C374.866 34.6479 374.492 34.5177 374.153 34.348C373.813 34.167 373.536 33.9237 373.321 33.6182C373.117 33.3127 373.016 32.9053 373.016 32.3961C373.016 31.9096 373.151 31.4739 373.423 31.0892C373.695 30.7045 374.091 30.4047 374.611 30.1897C375.143 29.9634 375.788 29.8502 376.546 29.8502C377.123 29.8502 377.7 29.9294 378.277 30.0878C378.854 30.2349 379.33 30.4329 379.703 30.6819L379.177 31.6493C378.781 31.3778 378.356 31.1854 377.904 31.0723C377.451 30.9478 376.999 30.8856 376.546 30.8856C375.743 30.8856 375.149 31.027 374.764 31.3099C374.39 31.5814 374.204 31.9322 374.204 32.3622C374.204 32.7016 374.306 32.9676 374.509 33.1599C374.724 33.3523 375.001 33.505 375.341 33.6182C375.692 33.72 376.071 33.8049 376.478 33.8728C376.897 33.9407 377.31 34.0255 377.717 34.1274C378.136 34.2179 378.515 34.348 378.854 34.5177C379.205 34.6762 379.482 34.9081 379.686 35.2136C379.901 35.5078 380.008 35.8982 380.008 36.3848C380.008 36.9053 379.861 37.3579 379.567 37.7426C379.284 38.116 378.866 38.4102 378.311 38.6252C377.768 38.8289 377.106 38.9307 376.325 38.9307Z" fill="#252525"/>
<path d="M240.207 251.832C240.558 252.701 241.548 253.12 242.417 252.769L256.577 247.038C257.446 246.687 257.865 245.697 257.513 244.828C257.162 243.959 256.172 243.54 255.303 243.892L242.717 248.985L237.623 236.399C237.271 235.53 236.282 235.111 235.413 235.462C234.544 235.814 234.125 236.803 234.476 237.672L240.207 251.832ZM392.942 43.0132C398.463 58.0837 393.233 75.9473 381.394 95.2476C369.593 114.486 351.48 134.735 332.016 154.351C312.528 173.99 291.885 192.803 274.884 209.376C266.41 217.636 258.857 225.324 252.884 232.216C246.935 239.08 242.447 245.272 240.217 250.533L243.343 251.858C245.355 247.11 249.546 241.25 255.449 234.439C261.328 227.657 268.799 220.047 277.253 211.806C294.109 195.376 314.944 176.374 334.425 156.742C353.929 137.087 372.273 116.61 384.288 97.0226C396.264 77.498 402.208 58.4386 396.129 41.8455L392.942 43.0132Z" fill="#252525"/>
</svg>
