<svg width="614" height="141" viewBox="0 0 614 141" fill="none" xmlns="http://www.w3.org/2000/svg">
<path d="M0.473904 103.848C0.473904 106.348 2.50031 108.374 5 108.374C7.49969 108.374 9.5261 106.348 9.5261 103.848C9.5261 101.348 7.49969 99.3218 5 99.3218C2.50031 99.3218 0.473904 101.348 0.473904 103.848ZM604.708 103.848C604.708 106.348 606.734 108.374 609.234 108.374C611.734 108.374 613.76 106.348 613.76 103.848C613.76 101.348 611.734 99.3218 609.234 99.3218C606.734 99.3218 604.708 101.348 604.708 103.848ZM5 104.697H609.234V102.999H5V104.697Z" fill="#252525"/>
<path d="M248.947 135.973C246.924 135.973 245.342 135.41 244.202 134.283C243.061 133.156 242.491 131.547 242.491 129.456V121.472H245.791V129.334C245.791 130.691 246.069 131.669 246.626 132.266C247.182 132.864 247.963 133.163 248.968 133.163C249.973 133.163 250.753 132.864 251.31 132.266C251.867 131.669 252.145 130.691 252.145 129.334V121.472H255.404V129.456C255.404 131.547 254.834 133.156 253.693 134.283C252.553 135.41 250.971 135.973 248.947 135.973ZM264.917 135.892C263.994 135.892 263.186 135.688 262.494 135.281C261.801 134.873 261.258 134.256 260.864 133.427C260.484 132.586 260.294 131.526 260.294 130.25C260.294 128.96 260.477 127.901 260.844 127.073C261.21 126.244 261.74 125.627 262.432 125.219C263.125 124.812 263.953 124.608 264.917 124.608C265.949 124.608 266.873 124.846 267.687 125.321C268.516 125.783 269.167 126.435 269.643 127.276C270.131 128.118 270.376 129.109 270.376 130.25C270.376 131.404 270.131 132.402 269.643 133.244C269.167 134.086 268.516 134.738 267.687 135.199C266.873 135.661 265.949 135.892 264.917 135.892ZM258.44 139.68V124.771H261.475V127.012L261.414 130.27L261.618 133.509V139.68H258.44ZM264.367 133.285C264.897 133.285 265.365 133.163 265.773 132.918C266.194 132.674 266.526 132.328 266.771 131.879C267.029 131.418 267.158 130.875 267.158 130.25C267.158 129.612 267.029 129.069 266.771 128.621C266.526 128.173 266.194 127.826 265.773 127.582C265.365 127.337 264.897 127.215 264.367 127.215C263.838 127.215 263.363 127.337 262.942 127.582C262.521 127.826 262.188 128.173 261.944 128.621C261.699 129.069 261.577 129.612 261.577 130.25C261.577 130.875 261.699 131.418 261.944 131.879C262.188 132.328 262.521 132.674 262.942 132.918C263.363 133.163 263.838 133.285 264.367 133.285ZM282.752 135.892C281.462 135.892 280.457 135.566 279.737 134.914C279.018 134.249 278.658 133.264 278.658 131.961V122.347H281.835V131.92C281.835 132.382 281.957 132.742 282.202 133C282.446 133.244 282.779 133.366 283.2 133.366C283.702 133.366 284.13 133.23 284.483 132.959L285.338 135.199C285.012 135.43 284.619 135.607 284.157 135.729C283.709 135.838 283.241 135.892 282.752 135.892ZM276.967 127.46V125.016H284.564V127.46H276.967ZM291.998 135.892C290.83 135.892 289.791 135.647 288.882 135.159C287.986 134.67 287.273 134.004 286.743 133.163C286.227 132.307 285.969 131.336 285.969 130.25C285.969 129.15 286.227 128.179 286.743 127.337C287.273 126.482 287.986 125.817 288.882 125.341C289.791 124.853 290.83 124.608 291.998 124.608C293.152 124.608 294.184 124.853 295.094 125.341C296.003 125.817 296.716 126.475 297.232 127.317C297.748 128.159 298.006 129.137 298.006 130.25C298.006 131.336 297.748 132.307 297.232 133.163C296.716 134.004 296.003 134.67 295.094 135.159C294.184 135.647 293.152 135.892 291.998 135.892ZM291.998 133.285C292.527 133.285 293.003 133.163 293.424 132.918C293.845 132.674 294.177 132.328 294.422 131.879C294.666 131.418 294.788 130.875 294.788 130.25C294.788 129.612 294.666 129.069 294.422 128.621C294.177 128.173 293.845 127.826 293.424 127.582C293.003 127.337 292.527 127.215 291.998 127.215C291.468 127.215 290.993 127.337 290.572 127.582C290.151 127.826 289.812 128.173 289.554 128.621C289.309 129.069 289.187 129.612 289.187 130.25C289.187 130.875 289.309 131.418 289.554 131.879C289.812 132.328 290.151 132.674 290.572 132.918C290.993 133.163 291.468 133.285 291.998 133.285ZM309.849 135.973C308.858 135.973 307.874 135.844 306.896 135.586C305.919 135.315 305.09 134.935 304.411 134.446L305.695 131.92C306.238 132.314 306.869 132.626 307.589 132.857C308.308 133.088 309.035 133.203 309.768 133.203C310.596 133.203 311.248 133.04 311.723 132.715C312.199 132.389 312.436 131.941 312.436 131.37C312.436 130.827 312.226 130.399 311.805 130.087C311.384 129.775 310.705 129.619 309.768 129.619H308.261V127.439L312.232 122.938L312.599 124.119H305.124V121.472H315.104V123.61L311.153 128.111L309.483 127.154H310.44C312.192 127.154 313.516 127.548 314.412 128.336C315.308 129.123 315.756 130.135 315.756 131.37C315.756 132.171 315.546 132.925 315.125 133.631C314.704 134.324 314.059 134.887 313.19 135.322C312.321 135.756 311.207 135.973 309.849 135.973ZM328.425 135.892C327.393 135.892 326.462 135.661 325.634 135.199C324.806 134.724 324.147 134.066 323.659 133.224C323.183 132.382 322.946 131.391 322.946 130.25C322.946 129.096 323.183 128.098 323.659 127.256C324.147 126.414 324.806 125.762 325.634 125.301C326.462 124.839 327.393 124.608 328.425 124.608C329.348 124.608 330.156 124.812 330.848 125.219C331.541 125.627 332.077 126.244 332.457 127.073C332.838 127.901 333.028 128.96 333.028 130.25C333.028 131.526 332.844 132.586 332.478 133.427C332.111 134.256 331.582 134.873 330.889 135.281C330.21 135.688 329.389 135.892 328.425 135.892ZM328.974 133.285C329.49 133.285 329.959 133.163 330.38 132.918C330.801 132.674 331.133 132.328 331.378 131.879C331.636 131.418 331.765 130.875 331.765 130.25C331.765 129.612 331.636 129.069 331.378 128.621C331.133 128.173 330.801 127.826 330.38 127.582C329.959 127.337 329.49 127.215 328.974 127.215C328.445 127.215 327.97 127.337 327.549 127.582C327.128 127.826 326.788 128.173 326.53 128.621C326.286 129.069 326.164 129.612 326.164 130.25C326.164 130.875 326.286 131.418 326.53 131.879C326.788 132.328 327.128 132.674 327.549 132.918C327.97 133.163 328.445 133.285 328.974 133.285ZM331.846 135.729V133.488L331.907 130.23L331.704 126.991V120.616H334.881V135.729H331.846ZM344.543 135.729V133.59L344.339 133.122V129.293C344.339 128.614 344.129 128.084 343.708 127.704C343.301 127.324 342.669 127.134 341.814 127.134C341.23 127.134 340.653 127.229 340.083 127.419C339.526 127.595 339.051 127.84 338.657 128.152L337.516 125.932C338.114 125.511 338.833 125.185 339.675 124.955C340.517 124.724 341.372 124.608 342.241 124.608C343.912 124.608 345.208 125.002 346.132 125.79C347.055 126.577 347.517 127.806 347.517 129.476V135.729H344.543ZM341.203 135.892C340.347 135.892 339.614 135.749 339.003 135.464C338.392 135.165 337.924 134.765 337.598 134.262C337.272 133.76 337.109 133.197 337.109 132.572C337.109 131.92 337.265 131.35 337.577 130.861C337.903 130.372 338.412 129.992 339.105 129.72C339.797 129.435 340.7 129.293 341.814 129.293H344.726V131.146H342.16C341.413 131.146 340.897 131.268 340.612 131.513C340.341 131.757 340.205 132.063 340.205 132.429C340.205 132.837 340.361 133.163 340.673 133.407C340.999 133.638 341.44 133.753 341.997 133.753C342.527 133.753 343.002 133.631 343.423 133.387C343.844 133.129 344.149 132.755 344.339 132.266L344.828 133.733C344.597 134.439 344.176 134.975 343.565 135.342C342.954 135.709 342.167 135.892 341.203 135.892ZM351.578 139.843C351.008 139.843 350.445 139.755 349.888 139.578C349.331 139.402 348.876 139.157 348.523 138.845L349.684 136.584C349.929 136.802 350.207 136.971 350.519 137.093C350.845 137.216 351.164 137.277 351.477 137.277C351.925 137.277 352.278 137.168 352.536 136.951C352.807 136.747 353.052 136.401 353.269 135.912L353.839 134.568L354.084 134.222L358.014 124.771H361.07L356.12 136.401C355.767 137.284 355.36 137.976 354.898 138.478C354.45 138.981 353.948 139.334 353.391 139.538C352.848 139.741 352.244 139.843 351.578 139.843ZM353.452 136.157L348.564 124.771H351.843L355.631 133.937L353.452 136.157ZM365.893 135.892C364.957 135.892 364.054 135.783 363.185 135.566C362.329 135.335 361.65 135.05 361.148 134.711L362.207 132.429C362.709 132.742 363.3 133 363.979 133.203C364.671 133.393 365.35 133.488 366.016 133.488C366.749 133.488 367.265 133.4 367.564 133.224C367.876 133.047 368.032 132.803 368.032 132.49C368.032 132.232 367.91 132.042 367.665 131.92C367.435 131.784 367.122 131.683 366.729 131.615C366.335 131.547 365.9 131.479 365.425 131.411C364.963 131.343 364.495 131.255 364.02 131.146C363.544 131.024 363.11 130.847 362.716 130.617C362.322 130.386 362.003 130.074 361.759 129.68C361.528 129.286 361.413 128.777 361.413 128.152C361.413 127.46 361.61 126.849 362.003 126.319C362.411 125.79 362.995 125.375 363.755 125.077C364.515 124.764 365.425 124.608 366.484 124.608C367.231 124.608 367.991 124.69 368.765 124.853C369.539 125.016 370.184 125.253 370.7 125.566L369.641 127.826C369.112 127.514 368.575 127.304 368.032 127.195C367.502 127.073 366.987 127.012 366.484 127.012C365.778 127.012 365.262 127.107 364.936 127.297C364.61 127.487 364.447 127.731 364.447 128.03C364.447 128.302 364.563 128.505 364.794 128.641C365.038 128.777 365.357 128.885 365.751 128.967C366.145 129.048 366.572 129.123 367.034 129.191C367.509 129.245 367.985 129.334 368.46 129.456C368.935 129.578 369.363 129.754 369.743 129.985C370.137 130.203 370.456 130.508 370.7 130.902C370.945 131.282 371.067 131.784 371.067 132.409C371.067 133.088 370.863 133.692 370.456 134.222C370.048 134.738 369.458 135.145 368.684 135.444C367.923 135.742 366.993 135.892 365.893 135.892Z" fill="#252525"/>
<path d="M514.786 7.70274C515.117 7.37133 515.117 6.834 514.786 6.50258L509.385 1.10185C509.054 0.770433 508.516 0.770433 508.185 1.10185C507.854 1.43326 507.854 1.9706 508.185 2.30201L512.986 7.10266L508.185 11.9033C507.854 12.2347 507.854 12.7721 508.185 13.1035C508.516 13.4349 509.054 13.4349 509.385 13.1035L514.786 7.70274ZM5 7.9513H514.186V6.25402H5V7.9513Z" fill="#252525"/>
<line x1="562.558" y1="7.10266" x2="562.558" y2="27.4701" stroke="#252525" stroke-width="1.69729"/>
<path d="M608.137 7.70274C608.468 7.37133 608.468 6.834 608.137 6.50258L602.736 1.10185C602.404 0.770433 601.867 0.770433 601.536 1.10185C601.204 1.43326 601.204 1.9706 601.536 2.30201L606.336 7.10266L601.536 11.9033C601.204 12.2347 601.204 12.7721 601.536 13.1035C601.867 13.4349 602.404 13.4349 602.736 13.1035L608.137 7.70274ZM517.58 7.9513L607.536 7.9513V6.25402L517.58 6.25402V7.9513Z" fill="#252525"/>
<line x1="236.679" y1="8.79987" x2="236.679" y2="29.1673" stroke="#252525" stroke-width="1.69729"/>
<path d="M139.71 55.9564V41.6992H145.046C146.255 41.6992 147.294 41.8961 148.163 42.2899C149.032 42.6701 149.697 43.2268 150.159 43.96C150.634 44.6797 150.871 45.5555 150.871 46.5874C150.871 47.5922 150.634 48.4612 150.159 49.1944C149.697 49.9141 149.032 50.4708 148.163 50.8646C147.294 51.2448 146.255 51.4349 145.046 51.4349H140.545L141.217 50.7424V55.9564H139.71ZM149.446 55.9564L145.78 50.7831H147.409L151.095 55.9564H149.446ZM141.217 50.8646L140.545 50.1517H145.006C146.431 50.1517 147.511 49.8394 148.244 49.2148C148.991 48.5902 149.364 47.7144 149.364 46.5874C149.364 45.4468 148.991 44.5642 148.244 43.9396C147.511 43.315 146.431 43.0027 145.006 43.0027H140.545L141.217 42.2899V50.8646ZM158.665 56.0583C157.552 56.0583 156.574 55.8274 155.732 55.3658C154.89 54.8905 154.232 54.2456 153.757 53.4309C153.281 52.6026 153.044 51.6589 153.044 50.5998C153.044 49.5407 153.268 48.6038 153.716 47.7891C154.178 46.9744 154.802 46.3362 155.59 45.8745C156.391 45.3993 157.287 45.1617 158.278 45.1617C159.283 45.1617 160.172 45.3925 160.946 45.8542C161.734 46.3023 162.352 46.9404 162.8 47.7687C163.248 48.5834 163.472 49.5271 163.472 50.5998C163.472 50.6677 163.465 50.7424 163.451 50.8238C163.451 50.8917 163.451 50.9664 163.451 51.0479H154.144V49.9684H162.678L162.107 50.3961C162.107 49.6221 161.938 48.9364 161.598 48.339C161.272 47.728 160.824 47.2527 160.254 46.9133C159.684 46.5738 159.025 46.4041 158.278 46.4041C157.545 46.4041 156.886 46.5738 156.303 46.9133C155.719 47.2527 155.264 47.728 154.938 48.339C154.612 48.95 154.449 49.6493 154.449 50.4368V50.6609C154.449 51.4756 154.626 52.1952 154.979 52.8198C155.345 53.4309 155.848 53.9129 156.486 54.2659C157.138 54.6054 157.878 54.7751 158.706 54.7751C159.358 54.7751 159.962 54.6597 160.519 54.4289C161.089 54.198 161.578 53.845 161.985 53.3698L162.8 54.3067C162.324 54.8769 161.727 55.3115 161.007 55.6102C160.301 55.9089 159.521 56.0583 158.665 56.0583ZM170.855 56.0583C169.796 56.0583 168.846 55.8274 168.004 55.3658C167.176 54.8905 166.524 54.2456 166.049 53.4309C165.573 52.6026 165.336 51.6589 165.336 50.5998C165.336 49.5271 165.573 48.5834 166.049 47.7687C166.524 46.954 167.176 46.3158 168.004 45.8542C168.846 45.3925 169.796 45.1617 170.855 45.1617C171.765 45.1617 172.587 45.3382 173.32 45.6912C174.053 46.0443 174.63 46.5738 175.051 47.2799L173.972 48.0131C173.605 47.47 173.15 47.0694 172.607 46.8114C172.064 46.5535 171.473 46.4245 170.835 46.4245C170.075 46.4245 169.389 46.601 168.778 46.954C168.167 47.2935 167.685 47.7755 167.332 48.4001C166.979 49.0247 166.802 49.7579 166.802 50.5998C166.802 51.4416 166.979 52.1749 167.332 52.7995C167.685 53.4241 168.167 53.9129 168.778 54.2659C169.389 54.6054 170.075 54.7751 170.835 54.7751C171.473 54.7751 172.064 54.6461 172.607 54.3881C173.15 54.1301 173.605 53.7364 173.972 53.2068L175.051 53.94C174.63 54.6325 174.053 55.1621 173.32 55.5287C172.587 55.8817 171.765 56.0583 170.855 56.0583ZM182.255 56.0583C181.141 56.0583 180.164 55.8274 179.322 55.3658C178.48 54.8905 177.821 54.2456 177.346 53.4309C176.871 52.6026 176.633 51.6589 176.633 50.5998C176.633 49.5407 176.857 48.6038 177.305 47.7891C177.767 46.9744 178.392 46.3362 179.179 45.8745C179.98 45.3993 180.877 45.1617 181.868 45.1617C182.873 45.1617 183.762 45.3925 184.536 45.8542C185.323 46.3023 185.941 46.9404 186.389 47.7687C186.837 48.5834 187.061 49.5271 187.061 50.5998C187.061 50.6677 187.055 50.7424 187.041 50.8238C187.041 50.8917 187.041 50.9664 187.041 51.0479H177.733V49.9684H186.267L185.697 50.3961C185.697 49.6221 185.527 48.9364 185.188 48.339C184.862 47.728 184.414 47.2527 183.843 46.9133C183.273 46.5738 182.615 46.4041 181.868 46.4041C181.135 46.4041 180.476 46.5738 179.892 46.9133C179.308 47.2527 178.853 47.728 178.528 48.339C178.202 48.95 178.039 49.6493 178.039 50.4368V50.6609C178.039 51.4756 178.215 52.1952 178.568 52.8198C178.935 53.4309 179.437 53.9129 180.075 54.2659C180.727 54.6054 181.467 54.7751 182.296 54.7751C182.947 54.7751 183.551 54.6597 184.108 54.4289C184.678 54.198 185.167 53.845 185.575 53.3698L186.389 54.3067C185.914 54.8769 185.317 55.3115 184.597 55.6102C183.891 55.9089 183.11 56.0583 182.255 56.0583ZM190.005 55.9564V45.2635H191.451V55.9564H190.005ZM190.738 42.9009C190.439 42.9009 190.188 42.7991 189.985 42.5954C189.781 42.3917 189.679 42.1473 189.679 41.8622C189.679 41.577 189.781 41.3394 189.985 41.1493C190.188 40.9456 190.439 40.8438 190.738 40.8438C191.037 40.8438 191.288 40.9388 191.492 41.1289C191.695 41.319 191.797 41.5566 191.797 41.8418C191.797 42.1405 191.695 42.3917 191.492 42.5954C191.302 42.7991 191.05 42.9009 190.738 42.9009ZM198.224 55.9564L193.479 45.2635H194.986L199.344 55.1825H198.632L203.051 45.2635H204.477L199.711 55.9564H198.224ZM210.757 56.0583C209.644 56.0583 208.666 55.8274 207.824 55.3658C206.982 54.8905 206.324 54.2456 205.849 53.4309C205.373 52.6026 205.136 51.6589 205.136 50.5998C205.136 49.5407 205.36 48.6038 205.808 47.7891C206.27 46.9744 206.894 46.3362 207.682 45.8745C208.483 45.3993 209.379 45.1617 210.37 45.1617C211.375 45.1617 212.264 45.3925 213.038 45.8542C213.826 46.3023 214.444 46.9404 214.892 47.7687C215.34 48.5834 215.564 49.5271 215.564 50.5998C215.564 50.6677 215.557 50.7424 215.544 50.8238C215.544 50.8917 215.544 50.9664 215.544 51.0479H206.236V49.9684H214.77L214.199 50.3961C214.199 49.6221 214.03 48.9364 213.69 48.339C213.364 47.728 212.916 47.2527 212.346 46.9133C211.776 46.5738 211.117 46.4041 210.37 46.4041C209.637 46.4041 208.978 46.5738 208.395 46.9133C207.811 47.2527 207.356 47.728 207.03 48.339C206.704 48.95 206.541 49.6493 206.541 50.4368V50.6609C206.541 51.4756 206.718 52.1952 207.071 52.8198C207.437 53.4309 207.94 53.9129 208.578 54.2659C209.23 54.6054 209.97 54.7751 210.798 54.7751C211.45 54.7751 212.054 54.6597 212.611 54.4289C213.181 54.198 213.67 53.845 214.077 53.3698L214.892 54.3067C214.417 54.8769 213.819 55.3115 213.099 55.6102C212.393 55.9089 211.613 56.0583 210.757 56.0583ZM218.507 55.9564V45.2635H219.892V48.1761L219.75 47.6669C220.049 46.8522 220.551 46.2344 221.257 45.8134C221.963 45.3789 222.839 45.1617 223.884 45.1617V46.567C223.83 46.567 223.776 46.567 223.721 46.567C223.667 46.5535 223.613 46.5467 223.558 46.5467C222.431 46.5467 221.549 46.8929 220.911 47.5854C220.273 48.2643 219.953 49.2352 219.953 50.4979V55.9564H218.507ZM236.575 60.0095C235.597 60.0095 234.66 59.867 233.764 59.5818C232.868 59.2967 232.142 58.8893 231.585 58.3598L232.318 57.2599C232.821 57.708 233.438 58.0611 234.172 58.319C234.918 58.5906 235.706 58.7264 236.534 58.7264C237.892 58.7264 238.89 58.4073 239.528 57.7691C240.166 57.1445 240.486 56.1669 240.486 54.8362V52.1681L240.689 50.335L240.547 48.5019V45.2635H241.932V54.6529C241.932 56.4996 241.477 57.8506 240.567 58.706C239.671 59.575 238.34 60.0095 236.575 60.0095ZM236.31 55.5491C235.292 55.5491 234.375 55.3318 233.561 54.8973C232.746 54.4492 232.101 53.8314 231.626 53.0439C231.164 52.2563 230.933 51.3534 230.933 50.335C230.933 49.3166 231.164 48.4205 231.626 47.6465C232.101 46.859 232.746 46.2479 233.561 45.8134C234.375 45.3789 235.292 45.1617 236.31 45.1617C237.261 45.1617 238.116 45.3586 238.877 45.7523C239.637 46.1461 240.241 46.73 240.689 47.5039C241.137 48.2779 241.361 49.2216 241.361 50.335C241.361 51.4484 241.137 52.3921 240.689 53.1661C240.241 53.94 239.637 54.5307 238.877 54.938C238.116 55.3454 237.261 55.5491 236.31 55.5491ZM236.453 54.2659C237.24 54.2659 237.94 54.103 238.551 53.7771C239.162 53.4376 239.644 52.976 239.997 52.3921C240.35 51.7947 240.526 51.109 240.526 50.335C240.526 49.561 240.35 48.8821 239.997 48.2983C239.644 47.7144 239.162 47.2595 238.551 46.9336C237.94 46.5942 237.24 46.4245 236.453 46.4245C235.679 46.4245 234.98 46.5942 234.355 46.9336C233.744 47.2595 233.262 47.7144 232.909 48.2983C232.569 48.8821 232.4 49.561 232.4 50.335C232.4 51.109 232.569 51.7947 232.909 52.3921C233.262 52.976 233.744 53.4376 234.355 53.7771C234.98 54.103 235.679 54.2659 236.453 54.2659ZM250.498 56.0583C249.384 56.0583 248.407 55.8274 247.565 55.3658C246.723 54.8905 246.064 54.2456 245.589 53.4309C245.114 52.6026 244.876 51.6589 244.876 50.5998C244.876 49.5407 245.1 48.6038 245.548 47.7891C246.01 46.9744 246.635 46.3362 247.422 45.8745C248.223 45.3993 249.119 45.1617 250.111 45.1617C251.115 45.1617 252.005 45.3925 252.779 45.8542C253.566 46.3023 254.184 46.9404 254.632 47.7687C255.08 48.5834 255.304 49.5271 255.304 50.5998C255.304 50.6677 255.298 50.7424 255.284 50.8238C255.284 50.8917 255.284 50.9664 255.284 51.0479H245.976V49.9684H254.51L253.94 50.3961C253.94 49.6221 253.77 48.9364 253.431 48.339C253.105 47.728 252.657 47.2527 252.086 46.9133C251.516 46.5738 250.857 46.4041 250.111 46.4041C249.377 46.4041 248.719 46.5738 248.135 46.9133C247.551 47.2527 247.096 47.728 246.77 48.339C246.444 48.95 246.282 49.6493 246.282 50.4368V50.6609C246.282 51.4756 246.458 52.1952 246.811 52.8198C247.178 53.4309 247.68 53.9129 248.318 54.2659C248.97 54.6054 249.71 54.7751 250.538 54.7751C251.19 54.7751 251.794 54.6597 252.351 54.4289C252.921 54.198 253.41 53.845 253.817 53.3698L254.632 54.3067C254.157 54.8769 253.56 55.3115 252.84 55.6102C252.134 55.9089 251.353 56.0583 250.498 56.0583ZM261.629 56.0583C260.624 56.0583 259.85 55.7867 259.307 55.2436C258.764 54.7004 258.492 53.9333 258.492 52.942V42.9009H259.938V52.8606C259.938 53.4852 260.094 53.9672 260.407 54.3067C260.733 54.6461 261.194 54.8158 261.792 54.8158C262.43 54.8158 262.959 54.6325 263.38 54.2659L263.89 55.3047C263.604 55.5627 263.258 55.7527 262.851 55.875C262.457 55.9972 262.05 56.0583 261.629 56.0583ZM256.578 46.4652V45.2635H263.197V46.4652H256.578ZM269.394 56.0583C268.511 56.0583 267.676 55.9361 266.889 55.6916C266.101 55.4337 265.483 55.1146 265.035 54.7344L265.687 53.5938C266.121 53.9197 266.678 54.2048 267.357 54.4492C268.036 54.6801 268.749 54.7955 269.496 54.7955C270.514 54.7955 271.247 54.6393 271.695 54.327C272.143 54.0011 272.367 53.5734 272.367 53.0439C272.367 52.6501 272.238 52.3446 271.98 52.1273C271.736 51.8965 271.41 51.7268 271.003 51.6182C270.595 51.496 270.141 51.3941 269.638 51.3126C269.136 51.2312 268.633 51.1361 268.131 51.0275C267.642 50.9189 267.194 50.7627 266.787 50.5591C266.379 50.3418 266.047 50.0499 265.789 49.6833C265.544 49.3166 265.422 48.8278 265.422 48.2168C265.422 47.6329 265.585 47.1102 265.911 46.6485C266.237 46.1868 266.712 45.827 267.337 45.569C267.975 45.2975 268.749 45.1617 269.659 45.1617C270.351 45.1617 271.044 45.2567 271.736 45.4468C272.429 45.6233 272.999 45.861 273.447 46.1597L272.816 47.3206C272.34 46.9948 271.831 46.7639 271.288 46.6281C270.745 46.4788 270.202 46.4041 269.659 46.4041C268.695 46.4041 267.982 46.5738 267.52 46.9133C267.072 47.2392 266.848 47.6601 266.848 48.1761C266.848 48.5834 266.97 48.9025 267.214 49.1333C267.472 49.3642 267.805 49.5475 268.212 49.6833C268.633 49.8055 269.088 49.9073 269.577 49.9888C270.08 50.0702 270.575 50.1721 271.064 50.2943C271.566 50.4029 272.021 50.5591 272.429 50.7627C272.849 50.9528 273.182 51.2312 273.427 51.5978C273.685 51.9508 273.814 52.4193 273.814 53.0031C273.814 53.6277 273.637 54.1709 273.284 54.6325C272.945 55.0806 272.442 55.4337 271.777 55.6916C271.125 55.9361 270.331 56.0583 269.394 56.0583ZM285.423 58.4005V39.2551H287.46V58.4005H285.423ZM286.156 56.2008C285.016 56.2008 283.923 56.0515 282.877 55.7527C281.832 55.4404 280.99 55.0399 280.351 54.5511L281.472 52.0662C282.083 52.5007 282.802 52.8606 283.631 53.1457C284.472 53.4173 285.321 53.5531 286.177 53.5531C286.828 53.5531 287.351 53.492 287.745 53.3698C288.152 53.234 288.451 53.0507 288.641 52.8198C288.831 52.589 288.926 52.3242 288.926 52.0255C288.926 51.6453 288.777 51.3466 288.478 51.1293C288.179 50.8985 287.786 50.7152 287.297 50.5794C286.808 50.4301 286.265 50.2943 285.667 50.1721C285.084 50.0363 284.493 49.8733 283.895 49.6833C283.312 49.4932 282.775 49.2487 282.286 48.95C281.798 48.6513 281.397 48.2575 281.085 47.7687C280.786 47.2799 280.637 46.6553 280.637 45.8949C280.637 45.0802 280.854 44.3402 281.288 43.6749C281.736 42.9959 282.402 42.4596 283.284 42.0658C284.181 41.6585 285.301 41.4548 286.645 41.4548C287.541 41.4548 288.424 41.5634 289.293 41.7807C290.162 41.9844 290.929 42.2967 291.594 42.7176L290.576 45.2228C289.911 44.8426 289.245 44.5642 288.58 44.3877C287.915 44.1976 287.263 44.1026 286.625 44.1026C285.986 44.1026 285.464 44.1773 285.056 44.3266C284.649 44.476 284.357 44.6729 284.181 44.9173C284.004 45.1481 283.916 45.4197 283.916 45.732C283.916 46.0986 284.065 46.3973 284.364 46.6281C284.663 46.8454 285.056 47.0219 285.545 47.1577C286.034 47.2935 286.57 47.4293 287.154 47.565C287.752 47.7008 288.342 47.857 288.926 48.0335C289.524 48.21 290.067 48.4476 290.556 48.7464C291.044 49.0451 291.438 49.4388 291.737 49.9277C292.049 50.4165 292.205 51.0343 292.205 51.7811C292.205 52.5822 291.981 53.3154 291.533 53.9808C291.085 54.6461 290.413 55.1825 289.517 55.5898C288.634 55.9972 287.514 56.2008 286.156 56.2008ZM293.6 52.9624V50.7424L300.321 41.6992H303.783L297.205 50.7424L295.596 50.2739H306.818V52.9624H293.6ZM301.278 55.9564V52.9624L301.38 50.2739V47.6058H304.496V55.9564H301.278ZM314.18 56.2008C312.877 56.2008 311.743 55.9293 310.779 55.3861C309.828 54.843 309.095 54.0487 308.579 53.0031C308.063 51.9576 307.805 50.6677 307.805 49.1333C307.805 47.4904 308.111 46.0986 308.722 44.958C309.346 43.8174 310.202 42.9484 311.288 42.351C312.388 41.7535 313.65 41.4548 315.076 41.4548C315.837 41.4548 316.563 41.5363 317.256 41.6992C317.948 41.8622 318.545 42.1066 319.048 42.4324L317.826 44.8562C317.432 44.5846 317.011 44.4013 316.563 44.3062C316.115 44.1976 315.646 44.1433 315.158 44.1433C313.922 44.1433 312.944 44.5167 312.225 45.2635C311.505 46.0103 311.145 47.117 311.145 48.5834C311.145 48.8278 311.145 49.0994 311.145 49.3981C311.159 49.6968 311.2 49.9956 311.267 50.2943L310.351 49.4388C310.609 48.9093 310.942 48.468 311.349 48.115C311.756 47.7483 312.238 47.4768 312.795 47.3003C313.365 47.1102 313.99 47.0151 314.669 47.0151C315.592 47.0151 316.42 47.1984 317.154 47.565C317.887 47.9317 318.471 48.4476 318.905 49.113C319.353 49.7783 319.577 50.5591 319.577 51.4552C319.577 52.4193 319.333 53.2611 318.844 53.9808C318.369 54.6869 317.724 55.2368 316.909 55.6305C316.108 56.0107 315.198 56.2008 314.18 56.2008ZM313.997 53.7364C314.458 53.7364 314.866 53.6549 315.219 53.492C315.585 53.3154 315.871 53.0642 316.074 52.7384C316.278 52.4125 316.38 52.0391 316.38 51.6182C316.38 50.9664 316.156 50.4504 315.708 50.0702C315.273 49.6765 314.689 49.4796 313.956 49.4796C313.467 49.4796 313.039 49.5746 312.673 49.7647C312.306 49.9412 312.014 50.1924 311.797 50.5183C311.593 50.8306 311.492 51.1972 311.492 51.6182C311.492 52.0255 311.593 52.3921 311.797 52.718C312.001 53.0303 312.286 53.2815 312.652 53.4716C313.019 53.6481 313.467 53.7364 313.997 53.7364ZM326.68 56.2008C325.485 56.2008 324.439 56.0243 323.543 55.6713C322.647 55.3047 321.948 54.7955 321.445 54.1437C320.943 53.4784 320.692 52.7044 320.692 51.8218C320.692 50.9392 320.936 50.1924 321.425 49.5814C321.928 48.9568 322.627 48.4884 323.523 48.1761C324.419 47.8502 325.471 47.6872 326.68 47.6872C327.902 47.6872 328.961 47.8502 329.857 48.1761C330.767 48.4884 331.466 48.9568 331.955 49.5814C332.457 50.1924 332.709 50.9392 332.709 51.8218C332.709 52.7044 332.457 53.4784 331.955 54.1437C331.453 54.7955 330.747 55.3047 329.837 55.6713C328.941 56.0243 327.888 56.2008 326.68 56.2008ZM326.68 53.7771C327.508 53.7771 328.16 53.5938 328.635 53.2272C329.124 52.8606 329.368 52.3582 329.368 51.72C329.368 51.0818 329.124 50.5862 328.635 50.2332C328.16 49.8666 327.508 49.6833 326.68 49.6833C325.865 49.6833 325.22 49.8666 324.745 50.2332C324.27 50.5862 324.032 51.0818 324.032 51.72C324.032 52.3582 324.27 52.8606 324.745 53.2272C325.22 53.5938 325.865 53.7771 326.68 53.7771ZM326.68 49.3574C325.58 49.3574 324.616 49.208 323.788 48.9093C322.973 48.6106 322.335 48.1761 321.873 47.6058C321.425 47.0219 321.201 46.3294 321.201 45.5283C321.201 44.6864 321.432 43.9668 321.894 43.3693C322.355 42.7583 323 42.2899 323.828 41.964C324.657 41.6245 325.607 41.4548 326.68 41.4548C327.78 41.4548 328.737 41.6245 329.552 41.964C330.38 42.2899 331.025 42.7583 331.487 43.3693C331.962 43.9668 332.199 44.6864 332.199 45.5283C332.199 46.3294 331.969 47.0219 331.507 47.6058C331.059 48.1761 330.421 48.6106 329.592 48.9093C328.764 49.208 327.793 49.3574 326.68 49.3574ZM326.68 47.4225C327.372 47.4225 327.916 47.2663 328.309 46.954C328.717 46.6417 328.92 46.214 328.92 45.6709C328.92 45.1006 328.71 44.6593 328.289 44.347C327.882 44.0347 327.345 43.8785 326.68 43.8785C326.028 43.8785 325.499 44.0347 325.091 44.347C324.684 44.6593 324.48 45.1006 324.48 45.6709C324.48 46.214 324.677 46.6417 325.071 46.954C325.465 47.2663 326.001 47.4225 326.68 47.4225Z" fill="#252525"/>
<path d="M521.246 40.1174H528.782V41.4209H521.246V40.1174ZM521.409 47.47H519.902V33.2128H529.678V34.5163H521.409V47.47ZM536.669 47.5719C535.556 47.5719 534.578 47.341 533.736 46.8794C532.894 46.4041 532.236 45.7592 531.761 44.9445C531.285 44.1162 531.048 43.1725 531.048 42.1134C531.048 41.0543 531.272 40.1174 531.72 39.3027C532.182 38.488 532.806 37.8498 533.594 37.3882C534.395 36.9129 535.291 36.6753 536.282 36.6753C537.287 36.6753 538.176 36.9061 538.95 37.3678C539.738 37.8159 540.356 38.454 540.804 39.2823C541.252 40.097 541.476 41.0407 541.476 42.1134C541.476 42.1813 541.469 42.256 541.456 42.3374C541.456 42.4053 541.456 42.48 541.456 42.5615H532.148V41.482H540.682L540.111 41.9097C540.111 41.1358 539.942 40.4501 539.602 39.8526C539.276 39.2416 538.828 38.7663 538.258 38.4269C537.688 38.0874 537.029 37.9177 536.282 37.9177C535.549 37.9177 534.891 38.0874 534.307 38.4269C533.723 38.7663 533.268 39.2416 532.942 39.8526C532.616 40.4636 532.453 41.1629 532.453 41.9505V42.1745C532.453 42.9892 532.63 43.7088 532.983 44.3334C533.349 44.9445 533.852 45.4265 534.49 45.7795C535.142 46.119 535.882 46.2887 536.71 46.2887C537.362 46.2887 537.966 46.1733 538.523 45.9425C539.093 45.7116 539.582 45.3586 539.989 44.8834L540.804 45.8203C540.329 46.3906 539.731 46.8251 539.012 47.1238C538.305 47.4225 537.525 47.5719 536.669 47.5719ZM548.961 47.5719C547.848 47.5719 546.87 47.341 546.028 46.8794C545.187 46.4041 544.528 45.7592 544.053 44.9445C543.578 44.1162 543.34 43.1725 543.34 42.1134C543.34 41.0543 543.564 40.1174 544.012 39.3027C544.474 38.488 545.098 37.8498 545.886 37.3882C546.687 36.9129 547.583 36.6753 548.574 36.6753C549.579 36.6753 550.469 36.9061 551.242 37.3678C552.03 37.8159 552.648 38.454 553.096 39.2823C553.544 40.097 553.768 41.0407 553.768 42.1134C553.768 42.1813 553.761 42.256 553.748 42.3374C553.748 42.4053 553.748 42.48 553.748 42.5615H544.44V41.482H552.974L552.403 41.9097C552.403 41.1358 552.234 40.4501 551.894 39.8526C551.568 39.2416 551.12 38.7663 550.55 38.4269C549.98 38.0874 549.321 37.9177 548.574 37.9177C547.841 37.9177 547.183 38.0874 546.599 38.4269C546.015 38.7663 545.56 39.2416 545.234 39.8526C544.908 40.4636 544.745 41.1629 544.745 41.9505V42.1745C544.745 42.9892 544.922 43.7088 545.275 44.3334C545.641 44.9445 546.144 45.4265 546.782 45.7795C547.434 46.119 548.174 46.2887 549.002 46.2887C549.654 46.2887 550.258 46.1733 550.815 45.9425C551.385 45.7116 551.874 45.3586 552.281 44.8834L553.096 45.8203C552.621 46.3906 552.023 46.8251 551.304 47.1238C550.598 47.4225 549.817 47.5719 548.961 47.5719ZM559.583 47.5719C558.701 47.5719 557.866 47.4497 557.078 47.2053C556.291 46.9473 555.673 46.6282 555.225 46.248L555.876 45.1074C556.311 45.4333 556.868 45.7184 557.547 45.9628C558.225 46.1937 558.938 46.3091 559.685 46.3091C560.703 46.3091 561.437 46.1529 561.885 45.8406C562.333 45.5148 562.557 45.087 562.557 44.5575C562.557 44.1637 562.428 43.8582 562.17 43.641C561.926 43.4101 561.6 43.2404 561.192 43.1318C560.785 43.0096 560.33 42.9077 559.828 42.8263C559.325 42.7448 558.823 42.6497 558.32 42.5411C557.832 42.4325 557.384 42.2763 556.976 42.0727C556.569 41.8554 556.236 41.5635 555.978 41.1969C555.734 40.8302 555.612 40.3414 555.612 39.7304C555.612 39.1465 555.775 38.6238 556.1 38.1621C556.426 37.7005 556.902 37.3406 557.526 37.0826C558.164 36.8111 558.938 36.6753 559.848 36.6753C560.541 36.6753 561.233 36.7703 561.926 36.9604C562.618 37.137 563.188 37.3746 563.636 37.6733L563.005 38.8342C562.53 38.5084 562.021 38.2775 561.477 38.1417C560.934 37.9924 560.391 37.9177 559.848 37.9177C558.884 37.9177 558.171 38.0874 557.709 38.4269C557.261 38.7528 557.037 39.1737 557.037 39.6897C557.037 40.097 557.16 40.4161 557.404 40.6469C557.662 40.8778 557.995 41.0611 558.402 41.1969C558.823 41.3191 559.278 41.4209 559.767 41.5024C560.269 41.5838 560.765 41.6857 561.253 41.8079C561.756 41.9165 562.211 42.0727 562.618 42.2763C563.039 42.4664 563.372 42.7448 563.616 43.1114C563.874 43.4644 564.003 43.9329 564.003 44.5168C564.003 45.1414 563.826 45.6845 563.473 46.1461C563.134 46.5942 562.632 46.9473 561.966 47.2053C561.314 47.4497 560.52 47.5719 559.583 47.5719ZM575.612 49.9141V30.7687H577.649V49.9141H575.612ZM576.346 47.7144C575.205 47.7144 574.112 47.5651 573.066 47.2664C572.021 46.9541 571.179 46.5535 570.541 46.0647L571.661 43.5799C572.272 44.0144 572.992 44.3742 573.82 44.6593C574.662 44.9309 575.511 45.0667 576.366 45.0667C577.018 45.0667 577.541 45.0056 577.934 44.8834C578.342 44.7476 578.64 44.5643 578.83 44.3334C579.021 44.1026 579.116 43.8378 579.116 43.5391C579.116 43.1589 578.966 42.8602 578.668 42.643C578.369 42.4121 577.975 42.2288 577.486 42.093C576.997 41.9437 576.454 41.8079 575.857 41.6857C575.273 41.5499 574.682 41.387 574.085 41.1969C573.501 41.0068 572.965 40.7624 572.476 40.4636C571.987 40.1649 571.586 39.7711 571.274 39.2823C570.975 38.7935 570.826 38.1689 570.826 37.4085C570.826 36.5938 571.043 35.8538 571.478 35.1885C571.926 34.5096 572.591 33.9732 573.474 33.5794C574.37 33.1721 575.49 32.9684 576.834 32.9684C577.731 32.9684 578.613 33.077 579.482 33.2943C580.351 33.498 581.118 33.8103 581.784 34.2312L580.765 36.7364C580.1 36.3562 579.435 36.0778 578.769 35.9013C578.104 35.7112 577.452 35.6162 576.814 35.6162C576.176 35.6162 575.653 35.6909 575.246 35.8402C574.838 35.9896 574.547 36.1865 574.37 36.4309C574.193 36.6617 574.105 36.9333 574.105 37.2456C574.105 37.6122 574.255 37.9109 574.553 38.1417C574.852 38.359 575.246 38.5355 575.735 38.6713C576.223 38.8071 576.76 38.9429 577.344 39.0786C577.941 39.2144 578.532 39.3706 579.116 39.5471C579.713 39.7236 580.256 39.9612 580.745 40.26C581.234 40.5587 581.628 40.9525 581.926 41.4413C582.239 41.9301 582.395 42.5479 582.395 43.2947C582.395 44.0958 582.171 44.8291 581.723 45.4944C581.275 46.1597 580.602 46.6961 579.706 47.1034C578.824 47.5108 577.703 47.7144 576.346 47.7144ZM588.317 47.7144C587.326 47.7144 586.341 47.5854 585.364 47.3275C584.386 47.0559 583.558 46.6757 582.879 46.1869L584.162 43.6613C584.705 44.0551 585.336 44.3674 586.056 44.5982C586.776 44.8291 587.502 44.9445 588.235 44.9445C589.064 44.9445 589.715 44.7815 590.191 44.4557C590.666 44.1298 590.904 43.6817 590.904 43.1114C590.904 42.5683 590.693 42.1406 590.272 41.8283C589.851 41.516 589.172 41.3598 588.235 41.3598H586.728V39.1805L590.7 34.6793L591.067 35.8606H583.592V33.2128H593.572V35.3514L589.62 39.8526L587.95 38.8953H588.908C590.659 38.8953 591.983 39.2891 592.879 40.0767C593.775 40.8642 594.223 41.8758 594.223 43.1114C594.223 43.9125 594.013 44.6661 593.592 45.3722C593.171 46.0647 592.526 46.6282 591.657 47.0627C590.788 47.4972 589.675 47.7144 588.317 47.7144ZM595.525 47.47V45.3315L601.024 40.1378C601.459 39.744 601.778 39.3909 601.982 39.0786C602.185 38.7663 602.321 38.4812 602.389 38.2232C602.471 37.9652 602.511 37.7276 602.511 37.5104C602.511 36.9401 602.314 36.5056 601.921 36.2068C601.54 35.8945 600.977 35.7384 600.23 35.7384C599.633 35.7384 599.076 35.8538 598.56 36.0846C598.058 36.3155 597.63 36.6753 597.277 37.1641L594.873 35.6162C595.417 34.8015 596.177 34.1565 597.155 33.6813C598.132 33.206 599.259 32.9684 600.536 32.9684C601.595 32.9684 602.518 33.1449 603.306 33.498C604.107 33.8374 604.725 34.3195 605.159 34.9441C605.607 35.5687 605.831 36.3155 605.831 37.1845C605.831 37.6461 605.77 38.1078 605.648 38.5695C605.539 39.0175 605.308 39.4928 604.955 39.9952C604.616 40.4976 604.114 41.0611 603.448 41.6857L598.886 45.9832L598.254 44.7815H606.3V47.47H595.525Z" fill="#252525"/>
</svg>
