<svg width="43" height="51" viewBox="0 0 43 51" fill="none" xmlns="http://www.w3.org/2000/svg">
<path d="M41.2469 11.6073L22.3522 0.366553C21.8271 0.054248 21.1731 0.054248 20.648 0.366553L1.75315 11.6073C1.24817 11.9078 0.938599 12.4521 0.938599 13.0397V19.4564C0.938599 32.9714 8.74719 45.3154 20.8983 50.0199C21.2851 50.1697 21.7146 50.1699 22.1018 50.0199C34.2234 45.3271 42.0614 33.0099 42.0614 19.4564V13.0397C42.0615 12.452 41.752 11.9078 41.2469 11.6073ZM29.7341 21.3872L19.2883 31.8331C18.6374 32.4839 17.5822 32.4839 16.9313 31.8331L13.2653 28.1671C12.6144 27.5164 12.6144 26.461 13.2653 25.8101C13.9161 25.1593 14.9715 25.1593 15.6223 25.8101L18.1097 28.2975L27.3771 19.0301C28.0279 18.3793 29.0832 18.3793 29.7341 19.0301C30.3851 19.6811 30.3851 20.7364 29.7341 21.3872Z" fill="#252525"/>
</svg>
